<svg width="22" height="22" viewBox="0 0 22 22" fill="none" xmlns="http://www.w3.org/2000/svg">
<path d="M11 22C17.0751 22 22 17.0751 22 11C22 4.92487 17.0751 0 11 0C4.92487 0 0 4.92487 0 11C0 17.0751 4.92487 22 11 22Z" fill="#054491"/>
<path d="M5.03341 10.7617L15.6392 6.67248C16.1315 6.49465 16.5614 6.79257 16.4019 7.5369L16.4028 7.53598L14.597 16.0436C14.4632 16.6467 14.1047 16.7934 13.6033 16.5092L10.8533 14.4825L9.52691 15.7603C9.38024 15.907 9.25649 16.0307 8.97233 16.0307L9.16758 13.2322L14.2642 8.62773C14.4861 8.43248 14.2147 8.32249 13.9223 8.51682L7.62391 12.4823L4.90875 11.6353C4.31933 11.4483 4.3065 11.0459 5.03341 10.7617Z" fill="white"/>
</svg>
