<svg width="149" height="31" viewBox="0 0 149 31" fill="none" xmlns="http://www.w3.org/2000/svg">
<path d="M23.6212 21.9457C23.8459 21.4134 23.9582 20.8694 23.9582 20.2845V10.774C23.9582 10.1774 23.8459 9.61586 23.6212 9.10114C23.3965 8.59227 23.0831 8.13605 22.687 7.75586C22.2849 7.36982 21.8119 7.05397 21.2857 6.82586C20.7712 6.59775 20.2214 6.49246 19.6064 6.49246H10.8793C10.2939 6.49246 9.72633 6.60944 9.19418 6.83171C8.65613 7.05982 8.18311 7.36982 7.79287 7.75586C7.40264 8.1419 7.08335 8.59812 6.85276 9.11869C6.62216 9.62171 6.50391 10.1832 6.50391 10.774V20.2845C6.50391 20.8694 6.61625 21.4076 6.85276 21.934C7.08926 22.4662 7.40264 22.9225 7.79287 23.3085C8.18311 23.6945 8.65613 24.0045 9.19418 24.2327C9.72633 24.4608 10.2939 24.5719 10.8793 24.5719H19.6124C20.2214 24.5719 20.7712 24.4608 21.2916 24.2385C21.8178 24.0104 22.2908 23.6945 22.6929 23.3085C23.089 22.9225 23.4024 22.4662 23.6212 21.9457ZM21.8533 20.2845C21.8533 20.887 21.6345 21.4251 21.2147 21.8462C20.789 22.2791 20.2332 22.5072 19.6064 22.5072H10.8793C10.2585 22.5072 9.70268 22.2849 9.27105 21.8579C8.83942 21.4368 8.60883 20.8928 8.60883 20.2845V10.774C8.60883 10.1657 8.83942 9.62171 9.27105 9.20057C9.70268 8.77359 10.2585 8.55133 10.8793 8.55133H19.6124C20.2391 8.55133 20.789 8.77944 21.2206 9.21227C21.6404 9.63341 21.8592 10.1774 21.8592 10.774V20.2845H21.8533Z" fill="#054491"/>
<path d="M43.0504 24.256C43.2692 24.4725 43.4998 24.566 43.7836 24.566C44.0733 24.566 44.3098 24.4666 44.5404 24.2443C44.7533 24.0396 44.8479 23.8291 44.836 23.5659C44.836 23.2851 44.7237 23.0394 44.4872 22.7879L37.0668 15.5L44.5168 8.21208C44.7355 7.99567 44.836 7.7734 44.836 7.49265C44.836 7.2119 44.7355 6.98963 44.5168 6.77322C44.298 6.5568 44.0674 6.46322 43.7836 6.46322C43.4998 6.46322 43.2692 6.5568 43.0504 6.77322L35.6004 14.0611L28.1208 6.77322C27.8902 6.5685 27.6419 6.45737 27.3877 6.45737C27.1039 6.45737 26.8733 6.55095 26.6545 6.76737C26.4357 6.98378 26.3352 7.20605 26.3352 7.4868C26.3352 7.76756 26.4357 7.98982 26.6545 8.20623L34.1045 15.4942L26.6545 22.8172C26.4357 23.0336 26.3352 23.2559 26.3352 23.5366C26.3352 23.8174 26.4357 24.0396 26.6545 24.256C26.8733 24.4725 27.1039 24.566 27.3877 24.566C27.6715 24.566 27.9021 24.4725 28.1208 24.256L35.6004 16.9623L43.0504 24.256Z" fill="#054491"/>
<path d="M64.1468 21.4836C64.4188 20.8694 64.5547 20.2085 64.5547 19.5183C64.5547 18.8807 64.4365 18.2607 64.2 17.6758C63.9635 17.0909 63.6205 16.5587 63.1771 16.0966L62.6095 15.5L63.183 14.9092C64.1113 13.9558 64.5607 12.8445 64.5607 11.5168C64.5607 10.809 64.4247 10.1481 64.1586 9.5398C63.8866 8.9315 63.5141 8.39338 63.047 7.94301C62.5799 7.49263 62.0182 7.12999 61.3915 6.86093C60.7765 6.59772 60.1025 6.4632 59.4048 6.4632H48.3776C48.0701 6.4632 47.8395 6.55678 47.6326 6.7615C47.4197 6.96621 47.3311 7.19433 47.3311 7.49263V23.5366C47.3311 23.8349 47.4257 24.063 47.6326 24.2677C47.8395 24.4724 48.0701 24.566 48.3776 24.566H59.393C60.1143 24.566 60.7943 24.4315 61.4092 24.1683C62.0359 23.8992 62.5858 23.5366 63.0411 23.0921C63.5023 22.6475 63.8748 22.1036 64.1468 21.4836ZM53.1255 16.2311C53.3384 16.4358 53.569 16.5294 53.8705 16.5294H59.393C60.2207 16.5294 60.9657 16.8336 61.5511 17.4068C62.1424 17.9917 62.4439 18.6994 62.4439 19.5183C62.4439 20.3372 62.1424 21.0507 61.5511 21.6298C60.9657 22.203 60.2207 22.5072 59.393 22.5072H49.4301V8.52206H59.393C60.2266 8.52206 60.948 8.80867 61.5452 9.37603C62.1364 9.94338 62.4498 10.6804 62.4498 11.5109C62.4498 12.3064 62.1542 13.0083 61.5747 13.5873C60.9953 14.1664 60.2621 14.4706 59.4521 14.4706H53.8705C53.563 14.4706 53.3324 14.5641 53.1255 14.7689C52.9126 14.9736 52.818 15.2017 52.818 15.5C52.818 15.7983 52.9126 16.0264 53.1255 16.2311Z" fill="#054491"/>
<path d="M69.0131 23.0921C69.4683 23.5425 70.0182 23.9051 70.645 24.1683C71.2599 24.4315 71.9339 24.566 72.6316 24.566H82.2043C82.5117 24.566 82.7423 24.4725 82.9493 24.2677C83.1621 24.063 83.2567 23.8349 83.2567 23.5366C83.2567 23.2383 83.1621 23.0102 82.9552 22.8055C82.7423 22.6008 82.5117 22.5072 82.2102 22.5072H72.6375C71.7979 22.5072 71.0766 22.2147 70.4912 21.6415C69.9059 21.0683 69.6102 20.3664 69.6102 19.5417V7.46339C69.6102 7.16509 69.5156 6.93698 69.3087 6.73226C69.0958 6.52755 68.8652 6.43396 68.5637 6.43396C68.2621 6.43396 68.0256 6.52755 67.8187 6.73226C67.6058 6.93698 67.5112 7.16509 67.5112 7.46339V19.5475C67.5112 20.2377 67.6472 20.8928 67.9133 21.4953C68.1794 22.1036 68.5519 22.6475 69.0131 23.0921Z" fill="#054491"/>
<path d="M100.806 21.934C101.036 21.4134 101.149 20.846 101.149 20.2553V11.4817C101.149 10.7915 101.013 10.1364 100.747 9.53397C100.475 8.91982 100.102 8.38171 99.6468 7.93133C99.1856 7.48095 98.6357 7.11831 98.009 6.8551C97.3941 6.5919 96.7141 6.45737 95.9928 6.45737H85.2671C84.9419 6.45737 84.6936 6.55095 84.4807 6.74982C84.2738 6.94284 84.1851 7.1651 84.1851 7.45756C84.1851 7.76171 84.2797 7.99567 84.4985 8.21208C84.7113 8.42265 84.9478 8.51624 85.2671 8.51624H95.9928C96.8442 8.51624 97.5714 8.79699 98.1568 9.3585C98.7363 9.91416 99.0437 10.6453 99.0437 11.4759V13.3885H89.3705C88.661 13.3885 87.9811 13.5172 87.3366 13.7745C86.698 14.0319 86.1363 14.3945 85.6751 14.8449C85.2021 15.307 84.8237 15.851 84.5399 16.4651C84.262 17.0676 84.126 17.7285 84.126 18.4304V19.4774C84.126 20.1851 84.262 20.846 84.528 21.4543C84.8 22.0685 85.1784 22.6066 85.6515 23.0628C86.1304 23.5249 86.6921 23.8934 87.3307 24.1566C87.9574 24.4198 88.6433 24.5543 89.3646 24.5543H96.7673C97.3704 24.5543 97.944 24.4432 98.4643 24.2151C98.9964 23.987 99.4635 23.677 99.8597 23.291C100.256 22.9225 100.575 22.4604 100.806 21.934ZM99.0496 20.2553C99.0496 20.8519 98.8249 21.4017 98.3933 21.8345C97.9558 22.2732 97.4 22.5072 96.7732 22.5072H89.3705C88.5132 22.5072 87.7741 22.2147 87.1828 21.6298C86.5916 21.0508 86.29 20.3313 86.29 19.4891V18.4421C86.29 17.6232 86.5916 16.9096 87.1828 16.3306C87.78 15.7515 88.5132 15.4532 89.3705 15.4532H99.0437V20.2553H99.0496Z" fill="#054491"/>
<path d="M121.24 24.2677C121.453 24.4724 121.683 24.566 121.985 24.566C122.292 24.566 122.523 24.4724 122.73 24.2677C122.943 24.063 123.037 23.8349 123.037 23.5366V15.5292C123.037 14.2951 122.795 13.1136 122.316 12.0198C121.831 10.9202 121.163 9.94923 120.335 9.13621C119.502 8.3232 118.508 7.66225 117.385 7.18263C116.267 6.70301 115.055 6.4632 113.778 6.4632H105.565C105.258 6.4632 105.027 6.55678 104.82 6.7615C104.607 6.96621 104.519 7.19433 104.519 7.49263V23.5366C104.519 23.8349 104.613 24.063 104.82 24.2677C105.033 24.4724 105.264 24.566 105.565 24.566C105.873 24.566 106.103 24.4724 106.31 24.2677C106.523 24.063 106.618 23.8349 106.618 23.5366V8.52206H113.778C114.76 8.52206 115.7 8.70923 116.581 9.07188C117.456 9.43452 118.219 9.93754 118.857 10.5575C119.496 11.1834 120.004 11.9321 120.377 12.786C120.749 13.6458 120.938 14.57 120.938 15.5292V23.5366C120.932 23.8349 121.027 24.063 121.24 24.2677Z" fill="#054491"/>
<path d="M125.994 11.9672C125.515 13.0609 125.272 14.2483 125.272 15.5C125.272 16.7341 125.515 17.9157 125.994 19.0036C126.479 20.1091 127.141 21.0858 127.969 21.9106C128.791 22.7294 129.778 23.3845 130.907 23.8583C132.037 24.3262 133.255 24.566 134.538 24.566H141.45C141.757 24.566 141.988 24.4725 142.195 24.2677C142.407 24.063 142.502 23.8349 142.502 23.5366C142.502 23.2383 142.407 23.0102 142.195 22.8055C141.982 22.6008 141.751 22.5072 141.45 22.5072H134.538C133.556 22.5072 132.61 22.32 131.735 21.9574C130.86 21.5947 130.097 21.0917 129.459 20.4717C128.82 19.8517 128.312 19.103 127.939 18.2432C127.567 17.3892 127.377 16.4651 127.377 15.5C127.377 14.5349 127.567 13.6166 127.939 12.7685C128.312 11.9262 128.826 11.1775 129.47 10.5458C130.121 9.91415 130.884 9.41113 131.753 9.06019C132.616 8.70339 133.556 8.52792 134.538 8.52792H141.45C141.757 8.52792 141.988 8.43434 142.195 8.22962C142.407 8.0249 142.502 7.79679 142.502 7.49849C142.502 7.20019 142.407 6.97207 142.195 6.76736C141.982 6.56264 141.751 6.46906 141.45 6.46906H134.538C133.278 6.46906 132.072 6.70887 130.955 7.17679C129.825 7.65056 128.826 8.29981 127.986 9.10698C127.147 9.90245 126.473 10.8675 125.994 11.9672Z" fill="#054491"/>
<path d="M9.60814 0H1.03472C0.46119 0 0 0.456226 0 1.02358V9.50472C0 10.0721 0.46119 10.5283 1.03472 10.5283C1.60825 10.5283 2.06944 10.0721 2.06944 9.50472V3.07075C2.06944 2.5034 2.53063 2.04717 3.10417 2.04717H9.60814C10.1817 2.04717 10.6429 1.59094 10.6429 1.02358C10.6429 0.456226 10.1817 0 9.60814 0Z" fill="#054491"/>
<path d="M9.60814 28.9528H3.10417C2.53063 28.9528 2.06944 28.4966 2.06944 27.9293V21.4953C2.06944 20.9279 1.60825 20.4717 1.03472 20.4717C0.46119 20.4717 0 20.9279 0 21.4953V29.9764C0 30.5438 0.46119 31 1.03472 31H9.60814C10.1817 31 10.6429 30.5438 10.6429 29.9764C10.6429 29.4091 10.1817 28.9528 9.60814 28.9528Z" fill="#054491"/>
<path d="M147.965 0H139.392C138.818 0 138.357 0.456226 138.357 1.02358C138.357 1.59094 138.818 2.04717 139.392 2.04717H145.896C146.469 2.04717 146.931 2.5034 146.931 3.07075V9.50472C146.931 10.0721 147.392 10.5283 147.965 10.5283C148.539 10.5283 149 10.0721 149 9.50472V1.02358C149 0.456226 148.539 0 147.965 0Z" fill="#054491"/>
<path d="M147.965 20.4717C147.392 20.4717 146.931 20.9279 146.931 21.4953V27.9293C146.931 28.4966 146.469 28.9528 145.896 28.9528H139.392C138.818 28.9528 138.357 29.4091 138.357 29.9764C138.357 30.5438 138.818 31 139.392 31H147.965C148.539 31 149 30.5438 149 29.9764V21.4953C149 20.9279 148.539 20.4717 147.965 20.4717Z" fill="#054491"/>
</svg>
