<svg width="42" height="42" viewBox="0 0 42 42" fill="none" xmlns="http://www.w3.org/2000/svg">
<g clip-path="url(#clip0_38_117)">
<path d="M13.5625 0H3.9375H2.1875C0.98 0 0 0.98 0 2.1875V3.9375V13.5625C0 14.77 0.98 15.75 2.1875 15.75H3.9375C5.145 15.75 6.125 14.77 6.125 13.5625V8.3125C6.125 7.105 7.105 6.125 8.3125 6.125H13.5712C14.77 6.125 15.75 5.145 15.75 3.9375V2.1875C15.75 0.98 14.77 0 13.5625 0Z" fill="#054491"/>
<path d="M13.5625 35.875H8.3125C7.105 35.875 6.125 34.895 6.125 33.6875V28.4375C6.125 27.23 5.145 26.25 3.9375 26.25H2.1875C0.98 26.25 0 27.23 0 28.4375V38.0625V39.8212C0 41.02 0.98 42 2.1875 42H3.9375H13.5625C14.77 42 15.75 41.02 15.75 39.8125V38.0625C15.75 36.855 14.77 35.875 13.5625 35.875Z" fill="#054491"/>
<path d="M39.8125 0H38.0625H28.4375C27.23 0 26.25 0.98 26.25 2.1875V3.9375C26.25 5.145 27.23 6.125 28.4375 6.125H33.6962C34.895 6.125 35.875 7.105 35.875 8.3125V13.5713C35.875 14.7788 36.855 15.7588 38.0625 15.7588H39.8212C41.0287 15.7588 42.0087 14.7788 42.0087 13.5713V3.94625V2.1875C42 0.98 41.02 0 39.8125 0Z" fill="#054491"/>
<path d="M39.8125 26.25H38.0625C36.855 26.25 35.875 27.23 35.875 28.4375V33.6962C35.875 34.9037 34.895 35.8837 33.6875 35.8837H28.4375C27.23 35.8837 26.25 36.8637 26.25 38.0712V39.83C26.25 41.0375 27.23 42.0175 28.4375 42.0175H38.0625H39.8212C41.0287 42.0175 42.0087 41.0375 42.0087 39.83V38.0625V28.4375C42 27.23 41.02 26.25 39.8125 26.25Z" fill="#054491"/>
</g>
<defs>
<clipPath id="clip0_38_117">
<rect width="42" height="42" fill="white"/>
</clipPath>
</defs>
</svg>
