<svg width="392" height="82" viewBox="0 0 392 82" fill="none" xmlns="http://www.w3.org/2000/svg">
<path d="M62.1445 58.0498C62.7356 56.6419 63.0311 55.203 63.0311 53.6559V28.4989C63.0311 26.9208 62.7356 25.4355 62.1445 24.074C61.5533 22.7279 60.7289 21.5211 59.6867 20.5155C58.6289 19.4943 57.3844 18.6589 56 18.0555C54.6467 17.4521 53.2 17.1736 51.5822 17.1736H28.6222C27.0822 17.1736 25.5889 17.483 24.1889 18.0709C22.7733 18.6743 21.5289 19.4943 20.5022 20.5155C19.4756 21.5366 18.6356 22.7434 18.0289 24.1204C17.4222 25.4509 17.1111 26.9362 17.1111 28.4989V53.6559C17.1111 55.203 17.4067 56.6264 18.0289 58.0189C18.6511 59.4268 19.4756 60.6336 20.5022 61.6547C21.5289 62.6758 22.7733 63.4959 24.1889 64.0992C25.5889 64.7026 27.0822 64.9966 28.6222 64.9966H51.5978C53.2 64.9966 54.6467 64.7026 56.0156 64.1147C57.4 63.5113 58.6445 62.6758 59.7022 61.6547C60.7444 60.6336 61.5689 59.4268 62.1445 58.0498ZM57.4933 53.6559C57.4933 55.2494 56.9178 56.6728 55.8133 57.7868C54.6933 58.9317 53.2311 59.5351 51.5822 59.5351H28.6222C26.9889 59.5351 25.5267 58.9472 24.3911 57.8177C23.2556 56.7038 22.6489 55.2649 22.6489 53.6559V28.4989C22.6489 26.8898 23.2556 25.4509 24.3911 24.337C25.5267 23.2075 26.9889 22.6196 28.6222 22.6196H51.5978C53.2467 22.6196 54.6933 23.223 55.8289 24.3679C56.9333 25.4819 57.5089 26.9208 57.5089 28.4989V53.6559H57.4933Z" fill="#E5BF9A"/>
<path d="M113.26 64.1611C113.836 64.7336 114.442 64.9811 115.189 64.9811C115.951 64.9811 116.573 64.7181 117.18 64.1302C117.74 63.5887 117.989 63.0317 117.958 62.3355C117.958 61.5928 117.662 60.943 117.04 60.2777L97.5178 41L117.118 21.7223C117.693 21.1498 117.958 20.5619 117.958 19.8192C117.958 19.0766 117.693 18.4887 117.118 17.9162C116.542 17.3438 115.936 17.0962 115.189 17.0962C114.442 17.0962 113.836 17.3438 113.26 17.9162L93.66 37.194L73.9822 17.9162C73.3756 17.3747 72.7222 17.0808 72.0533 17.0808C71.3067 17.0808 70.7 17.3283 70.1244 17.9008C69.5489 18.4732 69.2844 19.0611 69.2844 19.8038C69.2844 20.5464 69.5489 21.1343 70.1244 21.7068L89.7244 40.9845L70.1244 60.3551C69.5489 60.9275 69.2844 61.5155 69.2844 62.2581C69.2844 63.0008 69.5489 63.5887 70.1244 64.1611C70.7 64.7336 71.3067 64.9811 72.0533 64.9811C72.8 64.9811 73.4067 64.7336 73.9822 64.1611L93.66 44.8679L113.26 64.1611Z" fill="#E5BF9A"/>
<path d="M168.762 56.8275C169.478 55.203 169.836 53.4547 169.836 51.6291C169.836 49.9426 169.524 48.3026 168.902 46.7555C168.28 45.2083 167.378 43.8004 166.211 42.5781L164.718 41L166.227 39.4374C168.669 36.9155 169.851 33.9759 169.851 30.4638C169.851 28.5917 169.493 26.8434 168.793 25.2343C168.078 23.6253 167.098 22.2019 165.869 21.0106C164.64 19.8192 163.162 18.86 161.513 18.1483C159.896 17.4521 158.122 17.0962 156.287 17.0962H127.276C126.467 17.0962 125.86 17.3438 125.316 17.8853C124.756 18.4268 124.522 19.0302 124.522 19.8192V62.2581C124.522 63.0472 124.771 63.6506 125.316 64.1921C125.86 64.7336 126.467 64.9811 127.276 64.9811H156.256C158.153 64.9811 159.942 64.6253 161.56 63.9291C163.209 63.2174 164.656 62.2581 165.853 61.0823C167.067 59.9064 168.047 58.4676 168.762 56.8275ZM139.767 42.934C140.327 43.4755 140.933 43.723 141.727 43.723H156.256C158.433 43.723 160.393 44.5275 161.933 46.0438C163.489 47.5909 164.282 49.463 164.282 51.6291C164.282 53.7951 163.489 55.6826 161.933 57.2143C160.393 58.7306 158.433 59.5351 156.256 59.5351H130.044V22.5423H156.256C158.449 22.5423 160.347 23.3004 161.918 24.8011C163.473 26.3019 164.298 28.2513 164.298 30.4483C164.298 32.5525 163.52 34.4091 161.996 35.9408C160.471 37.4725 158.542 38.277 156.411 38.277H141.727C140.918 38.277 140.311 38.5245 139.767 39.066C139.207 39.6075 138.958 40.2109 138.958 41C138.958 41.7891 139.207 42.3925 139.767 42.934Z" fill="#E5BF9A"/>
<path d="M181.564 61.0823C182.762 62.2736 184.209 63.2328 185.858 63.9291C187.476 64.6253 189.249 64.9811 191.084 64.9811H216.269C217.078 64.9811 217.684 64.7336 218.229 64.1921C218.789 63.6506 219.038 63.0472 219.038 62.2581C219.038 61.4691 218.789 60.8657 218.244 60.3242C217.684 59.7826 217.078 59.5351 216.284 59.5351H191.1C188.891 59.5351 186.993 58.7615 185.453 57.2453C183.913 55.7291 183.136 53.8725 183.136 51.6909V19.7419C183.136 18.9528 182.887 18.3494 182.342 17.8079C181.782 17.2664 181.176 17.0189 180.382 17.0189C179.589 17.0189 178.967 17.2664 178.422 17.8079C177.862 18.3494 177.613 18.9528 177.613 19.7419V51.7064C177.613 53.5321 177.971 55.2649 178.671 56.8585C179.371 58.4675 180.351 59.9064 181.564 61.0823Z" fill="#E5BF9A"/>
<path d="M265.207 58.0189C265.813 56.6419 266.109 55.1411 266.109 53.5785V30.3709C266.109 28.5453 265.751 26.8125 265.051 25.2189C264.336 23.5943 263.356 22.1709 262.158 20.9796C260.944 19.7883 259.498 18.8291 257.849 18.1328C256.231 17.4366 254.442 17.0808 252.544 17.0808H224.327C223.471 17.0808 222.818 17.3283 222.258 17.8543C221.713 18.3649 221.48 18.9528 221.48 19.7264C221.48 20.5309 221.729 21.1498 222.304 21.7223C222.864 22.2792 223.487 22.5268 224.327 22.5268H252.544C254.784 22.5268 256.698 23.2694 258.238 24.7547C259.762 26.2245 260.571 28.1585 260.571 30.3555V35.4147H235.122C233.256 35.4147 231.467 35.7551 229.771 36.4358C228.091 37.1166 226.613 38.0758 225.4 39.2672C224.156 40.4894 223.16 41.9283 222.413 43.5528C221.682 45.1464 221.324 46.8947 221.324 48.7513V51.5208C221.324 53.3928 221.682 55.1411 222.382 56.7502C223.098 58.3747 224.093 59.7981 225.338 61.0049C226.598 62.2272 228.076 63.2019 229.756 63.8981C231.404 64.5943 233.209 64.9502 235.107 64.9502H254.582C256.169 64.9502 257.678 64.6562 259.047 64.0528C260.447 63.4494 261.676 62.6294 262.718 61.6083C263.76 60.6336 264.6 59.4113 265.207 58.0189ZM260.587 53.5785C260.587 55.1566 259.996 56.6109 258.86 57.7558C257.709 58.9162 256.247 59.5351 254.598 59.5351H235.122C232.867 59.5351 230.922 58.7615 229.367 57.2143C227.811 55.6826 227.018 53.7796 227.018 51.5517V48.7823C227.018 46.6162 227.811 44.7287 229.367 43.197C230.938 41.6653 232.867 40.8762 235.122 40.8762H260.571V53.5785H260.587Z" fill="#E5BF9A"/>
<path d="M318.967 64.1921C319.527 64.7336 320.133 64.9811 320.927 64.9811C321.736 64.9811 322.342 64.7336 322.887 64.1921C323.447 63.6506 323.696 63.0472 323.696 62.2581V41.0774C323.696 37.8128 323.058 34.6875 321.798 31.7943C320.522 28.8857 318.764 26.3174 316.587 24.1668C314.393 22.0162 311.78 20.2679 308.824 18.9992C305.884 17.7306 302.696 17.0962 299.336 17.0962H277.729C276.92 17.0962 276.313 17.3438 275.769 17.8853C275.209 18.4268 274.976 19.0302 274.976 19.8192V62.2581C274.976 63.0472 275.224 63.6506 275.769 64.1921C276.329 64.7336 276.936 64.9811 277.729 64.9811C278.538 64.9811 279.144 64.7336 279.689 64.1921C280.249 63.6506 280.498 63.0472 280.498 62.2581V22.5423H299.336C301.918 22.5423 304.391 23.0374 306.709 23.9966C309.011 24.9559 311.018 26.2864 312.698 27.9264C314.378 29.5819 315.716 31.5623 316.696 33.8211C317.676 36.0955 318.173 38.54 318.173 41.0774V62.2581C318.158 63.0472 318.407 63.6506 318.967 64.1921Z" fill="#E5BF9A"/>
<path d="M331.473 31.6551C330.213 34.5483 329.576 37.6891 329.576 41C329.576 44.2645 330.213 47.3898 331.473 50.2675C332.749 53.1917 334.491 55.7755 336.669 57.957C338.831 60.123 341.429 61.8558 344.4 63.1091C347.371 64.3468 350.576 64.9811 353.951 64.9811H372.136C372.944 64.9811 373.551 64.7336 374.096 64.1921C374.656 63.6506 374.904 63.0472 374.904 62.2581C374.904 61.4691 374.656 60.8657 374.096 60.3242C373.536 59.7826 372.929 59.5351 372.136 59.5351H353.951C351.369 59.5351 348.88 59.04 346.578 58.0808C344.276 57.1215 342.269 55.7909 340.589 54.1509C338.909 52.5109 337.571 50.5306 336.591 48.2562C335.611 45.9974 335.113 43.5528 335.113 41C335.113 38.4472 335.611 36.0181 336.591 33.7747C337.571 31.5468 338.924 29.5664 340.62 27.8955C342.331 26.2245 344.338 24.894 346.624 23.9657C348.896 23.0219 351.369 22.5577 353.951 22.5577H372.136C372.944 22.5577 373.551 22.3102 374.096 21.7687C374.656 21.2272 374.904 20.6238 374.904 19.8347C374.904 19.0457 374.656 18.4423 374.096 17.9008C373.536 17.3592 372.929 17.1117 372.136 17.1117H353.951C350.638 17.1117 347.464 17.746 344.524 18.9838C341.553 20.237 338.924 21.9543 336.716 24.0894C334.507 26.1936 332.733 28.7464 331.473 31.6551Z" fill="#E5BF9A"/>
<path d="M25.2778 0H2.72222C1.21333 0 0 1.20679 0 2.70755V25.1415C0 26.6423 1.21333 27.8491 2.72222 27.8491C4.23111 27.8491 5.44444 26.6423 5.44444 25.1415V8.12264C5.44444 6.62189 6.65778 5.41509 8.16667 5.41509H25.2778C26.7867 5.41509 28 4.2083 28 2.70755C28 1.20679 26.7867 0 25.2778 0Z" fill="#E5BF9A"/>
<path d="M25.2778 76.5849H8.16667C6.65778 76.5849 5.44444 75.3781 5.44444 73.8774V56.8585C5.44444 55.3577 4.23111 54.1509 2.72222 54.1509C1.21333 54.1509 0 55.3577 0 56.8585V79.2925C0 80.7932 1.21333 82 2.72222 82H25.2778C26.7867 82 28 80.7932 28 79.2925C28 77.7917 26.7867 76.5849 25.2778 76.5849Z" fill="#E5BF9A"/>
<path d="M389.278 0H366.722C365.213 0 364 1.20679 364 2.70755C364 4.2083 365.213 5.41509 366.722 5.41509H383.833C385.342 5.41509 386.556 6.62189 386.556 8.12264V25.1415C386.556 26.6423 387.769 27.8491 389.278 27.8491C390.787 27.8491 392 26.6423 392 25.1415V2.70755C392 1.20679 390.787 0 389.278 0Z" fill="#E5BF9A"/>
<path d="M389.278 54.1509C387.769 54.1509 386.556 55.3577 386.556 56.8585V73.8774C386.556 75.3781 385.342 76.5849 383.833 76.5849H366.722C365.213 76.5849 364 77.7917 364 79.2925C364 80.7932 365.213 82 366.722 82H389.278C390.787 82 392 80.7932 392 79.2925V56.8585C392 55.3577 390.787 54.1509 389.278 54.1509Z" fill="#E5BF9A"/>
</svg>
