<svg width="22" height="22" viewBox="0 0 22 22" fill="none" xmlns="http://www.w3.org/2000/svg">
<g clip-path="url(#clip0_38_1937)">
<path d="M21.0701 2.8967H0.937674C0.475013 2.8967 0.0932059 3.23359 0.0168444 3.67379C-0.0101067 3.78159 0.00336889 18.169 0.00336889 18.169C0.00336889 18.6811 0.425603 19.1033 0.937674 19.1033H21.0207C21.5328 19.1033 21.955 18.7305 22 18.2139V3.831C22.0044 3.31444 21.5822 2.8967 21.0701 2.8967ZM18.1594 4.76531L10.9814 9.90398L3.80347 4.76531H18.1594ZM1.82706 17.2841V5.60978L10.4694 11.7726C10.8197 12.0556 11.242 11.9702 11.498 11.7726L20.1403 5.58282V17.2841H1.82706Z" fill="#054491"/>
</g>
<defs>
<clipPath id="clip0_38_1937">
<rect width="22" height="22" fill="white"/>
</clipPath>
</defs>
</svg>
