<svg width="22" height="22" viewBox="0 0 22 22" fill="none" xmlns="http://www.w3.org/2000/svg">
<path d="M11 22C17.0751 22 22 17.0751 22 11C22 4.92487 17.0751 0 11 0C4.92487 0 0 4.92487 0 11C0 17.0751 4.92487 22 11 22Z" fill="white"/>
<path d="M5.03341 10.7619L15.6392 6.67261C16.1315 6.49477 16.5614 6.79269 16.4019 7.53702L16.4028 7.53611L14.597 16.0437C14.4632 16.6469 14.1047 16.7935 13.6033 16.5094L10.8533 14.4826L9.52691 15.7604C9.38024 15.9071 9.25649 16.0309 8.97233 16.0309L9.16758 13.2323L14.2642 8.62786C14.4861 8.43261 14.2147 8.32261 13.9223 8.51694L7.62391 12.4824L4.90875 11.6354C4.31933 11.4484 4.3065 11.046 5.03341 10.7619Z" fill="#4B627D"/>
</svg>
