<svg width="512" height="512" viewBox="0 0 512 512" fill="none" xmlns="http://www.w3.org/2000/svg">
<path d="M319.1 217C339.3 237.2 339 270.2 318.5 290.7C298 311.2 265 311.5 244.8 291.3L54.7999 101.3C34.6999 81.1 34.9999 48.1 55.4999 27.6C75.9999 7.10001 109 6.80001 129.1 27L319.1 217Z" fill="#3265A5"/>
<path d="M319.1 290.5C339.3 270.3 339 237.3 318.5 216.8C298 196.3 265 196 244.8 216.2L54.8001 406.2C34.6001 426.4 34.9001 459.4 55.4001 479.9C75.9001 500.4 108.9 500.7 129.1 480.5L319.1 290.5V290.5Z" fill="#3265A5"/>
</svg>
