<svg width="317" height="68" viewBox="0 0 317 68" fill="none" xmlns="http://www.w3.org/2000/svg">
<path d="M50.8186 46.9207C51.2975 45.7916 51.5391 44.6368 51.5434 43.3942L51.6141 23.1896C51.6185 21.9222 51.3852 20.7284 50.914 19.6333C50.4428 18.5506 49.7837 17.579 48.949 16.7684C48.1019 15.9453 47.1043 15.2708 45.9935 14.7823C44.9077 14.2939 43.7459 14.0662 42.4459 14.0616L23.996 13.9971C22.7586 13.9927 21.5577 14.2371 20.431 14.7053C19.2919 15.186 18.2896 15.841 17.4617 16.6583C16.6338 17.4755 15.9554 18.4424 15.4641 19.5466C14.9728 20.6135 14.7187 21.8055 14.7143 23.0605L14.6436 43.2652C14.6393 44.5078 14.8728 45.6518 15.3688 46.7719C15.8649 47.9044 16.524 48.8759 17.3461 49.6989C18.1682 50.5219 19.1659 51.184 20.3017 51.6726C21.425 52.1611 22.6242 52.4014 23.8617 52.4057L42.3241 52.4703C43.6116 52.4748 44.7749 52.2428 45.8766 51.7745C46.9908 51.2937 47.9931 50.6262 48.846 49.8091C49.6863 48.9919 50.3522 48.025 50.8186 46.9207ZM47.0934 43.3787C47.089 44.6585 46.6225 45.8001 45.7318 46.6917C44.8286 47.608 43.6519 48.0886 42.3269 48.0839L23.877 48.0194C22.5645 48.0148 21.3912 47.5385 20.4819 46.6282C19.5725 45.7303 19.0891 44.573 19.0936 43.2807L19.1643 23.0761C19.1688 21.7838 19.6603 20.6299 20.5759 19.7384C21.4916 18.8345 22.6683 18.3664 23.9807 18.371L42.4431 18.4356C43.7681 18.4402 44.9289 18.9289 45.8382 19.8516C46.7226 20.7494 47.181 21.9066 47.1766 23.1741L47.1059 43.3787L47.0934 43.3787Z" fill="#054491"/>
<path d="M91.8764 51.9728C92.3373 52.4342 92.8241 52.6347 93.4241 52.6368C94.0366 52.639 94.5374 52.4295 95.0265 51.959C95.478 51.5257 95.6796 51.079 95.6566 50.5198C95.6586 49.9233 95.423 49.4006 94.9248 48.8645L79.2916 33.3269L95.0956 17.8992C95.5598 17.4411 95.7739 16.9696 95.776 16.3732C95.7781 15.7767 95.5672 15.3038 95.1063 14.8424C94.6455 14.3811 94.1587 14.1805 93.5587 14.1784C92.9587 14.1763 92.4705 14.3735 92.0064 14.8316L76.2023 30.2593L60.444 14.7212C59.958 14.2846 59.4339 14.0467 58.8964 14.0448C58.2964 14.0427 57.8082 14.2398 57.3441 14.6979C56.88 15.1561 56.6658 15.6275 56.6637 16.224C56.6617 16.8204 56.8725 17.2933 57.3334 17.7547L73.0291 33.2926L57.2248 48.7948C56.7607 49.2529 56.5466 49.7244 56.5445 50.3208C56.5424 50.9173 56.7532 51.3902 57.2141 51.8516C57.675 52.313 58.1618 52.5135 58.7618 52.5156C59.3618 52.5177 59.85 52.3206 60.3141 51.8624L76.1807 36.4225L91.8764 51.9728Z" fill="#054491"/>
<path d="M136.497 46.239C137.076 44.9362 137.369 43.5331 137.374 42.0668C137.379 40.7124 137.133 39.3944 136.638 38.15C136.142 36.9057 135.421 35.7724 134.487 34.7875L133.291 33.5158L134.508 32.265C136.478 30.2465 137.436 27.8889 137.446 25.0682C137.451 23.5646 137.169 22.1595 136.611 20.8652C136.04 19.5709 135.257 18.425 134.272 17.4647C133.288 16.5044 132.103 15.7299 130.78 15.1537C129.482 14.5899 128.058 14.2992 126.583 14.294L103.271 14.2125C102.621 14.2102 102.133 14.4073 101.694 14.8407C101.242 15.274 101.053 15.758 101.051 16.3917L100.932 50.4761C100.93 51.1099 101.128 51.5952 101.564 52.0316C102 52.468 102.487 52.6686 103.137 52.6708L126.424 52.7523C127.949 52.7576 129.387 52.4769 130.689 51.9222C132.016 51.3553 133.182 50.5889 134.147 49.6479C135.126 48.707 135.917 47.5541 136.497 46.239ZM113.236 34.9989C113.684 35.4354 114.171 35.6359 114.809 35.6382L126.484 35.679C128.234 35.6851 129.806 36.3368 131.04 37.5589C132.285 38.8058 132.917 40.3116 132.911 42.0512C132.905 43.7909 132.263 45.3046 131.008 46.5304C129.766 47.7438 128.189 48.3845 126.439 48.3783L105.377 48.3047L105.481 18.5942L126.543 18.6678C128.306 18.674 129.829 19.2882 131.087 20.498C132.333 21.7076 132.99 23.2756 132.983 25.0401C132.978 26.7301 132.347 28.219 131.118 29.4449C129.889 30.6708 128.336 31.3115 126.624 31.3055L114.824 31.2642C114.174 31.262 113.686 31.4591 113.247 31.8924C112.795 32.3258 112.594 32.8097 112.591 33.4434C112.589 34.0771 112.787 34.5624 113.236 34.9989Z" fill="#054491"/>
<path d="M146.772 49.692C147.731 50.6522 148.891 51.4267 150.214 51.9905C151.512 52.5542 152.936 52.845 154.411 52.8501L174.648 52.9209C175.298 52.9232 175.786 52.7261 176.226 52.2927C176.677 51.8594 176.879 51.3754 176.881 50.7417C176.883 50.108 176.685 49.6227 176.249 49.1862C175.8 48.7498 175.314 48.5492 174.676 48.547L154.439 48.4762C152.664 48.47 151.141 47.8434 149.908 46.6213C148.674 45.3992 148.055 43.9059 148.061 42.1539L148.151 16.4942C148.153 15.8605 147.954 15.3752 147.518 14.9388C147.07 14.5023 146.583 14.3018 145.946 14.2995C145.308 14.2973 144.807 14.4944 144.368 14.9277C143.917 15.3611 143.715 15.845 143.713 16.4787L143.623 42.1508C143.618 43.617 143.901 45.0098 144.459 46.2916C145.017 47.5859 145.8 48.7442 146.772 49.692Z" fill="#054491"/>
<path d="M213.993 47.4668C214.484 46.3626 214.726 45.1581 214.73 43.9031L214.796 25.2641C214.801 23.7979 214.518 22.4052 213.96 21.1233C213.39 19.8166 212.606 18.6706 211.647 17.7105C210.675 16.7503 209.516 15.9758 208.193 15.412C206.895 14.8483 205.458 14.5574 203.933 14.5521L181.258 14.4728C180.571 14.4704 180.045 14.6674 179.594 15.0883C179.155 15.4968 178.965 15.9683 178.963 16.5896C178.961 17.2358 179.159 17.7335 179.62 18.1949C180.069 18.6438 180.568 18.8444 181.243 18.8467L203.918 18.926C205.718 18.9323 207.253 19.5342 208.486 20.7314C209.707 21.9161 210.352 23.4717 210.346 25.2362L210.332 29.2994L189.882 29.2279C188.382 29.2227 186.943 29.491 185.579 30.033C184.227 30.575 183.037 31.3413 182.058 32.2947C181.055 33.2728 180.251 34.4256 179.646 35.7283C179.054 37.0061 178.762 38.4092 178.757 39.9003L178.749 42.1246C178.744 43.6281 179.026 45.0332 179.584 46.3275C180.155 47.6343 180.951 48.7802 181.947 49.753C182.956 50.7382 184.141 51.5251 185.489 52.089C186.812 52.6528 188.261 52.9437 189.786 52.949L205.436 53.0038C206.711 53.0082 207.924 52.7764 209.026 52.2956C210.153 51.815 211.143 51.1598 211.983 50.3426C212.823 49.5627 213.502 48.5834 213.993 47.4668ZM210.293 43.8876C210.289 45.155 209.809 46.3214 208.894 47.2377C207.966 48.1664 206.789 48.6594 205.464 48.6547L189.814 48.6C188.001 48.5937 186.441 47.9669 185.195 46.7199C183.95 45.4854 183.318 43.9548 183.324 42.1654L183.332 39.9412C183.338 38.2015 183.981 36.6878 185.235 35.462C186.502 34.2362 188.054 33.6079 189.866 33.6143L210.316 33.6858L210.28 43.8875L210.293 43.8876Z" fill="#054491"/>
<path d="M257.176 52.5759C257.624 53.0124 258.111 53.2129 258.748 53.2151C259.398 53.2174 259.886 53.0203 260.326 52.5869C260.777 52.1536 260.979 51.6696 260.981 51.0359L261.04 34.0248C261.05 31.4029 260.546 28.891 259.542 26.5638C258.525 24.2242 257.119 22.1565 255.375 20.4232C253.619 18.6898 251.524 17.2783 249.153 16.2511C246.794 15.2239 244.233 14.7055 241.533 14.696L224.17 14.6353C223.52 14.633 223.032 14.8301 222.593 15.2635C222.142 15.6969 221.953 16.1808 221.95 16.8145L221.831 50.899C221.829 51.5327 222.027 52.018 222.463 52.4545C222.912 52.8909 223.398 53.0915 224.036 53.0937C224.686 53.096 225.174 52.8989 225.613 52.4655C226.065 52.0321 226.266 51.5482 226.269 50.9145L226.38 19.017L241.518 19.07C243.593 19.0772 245.579 19.4818 247.438 20.2587C249.286 21.0356 250.895 22.1099 252.24 23.4318C253.585 24.7661 254.655 26.3604 255.436 28.1773C256.217 30.0067 256.61 31.9714 256.603 34.0092L256.543 51.0204C256.529 51.6541 256.727 52.1394 257.176 52.5759Z" fill="#054491"/>
<path d="M267.317 26.4792C266.296 28.7993 265.775 31.32 265.765 33.9792C265.756 36.601 266.26 39.1129 267.264 41.4276C268.281 43.7797 269.674 45.8598 271.418 47.618C273.149 49.3637 275.232 50.7627 277.616 51.7775C280 52.78 282.573 53.2984 285.285 53.3079L299.898 53.359C300.548 53.3613 301.036 53.1642 301.475 52.7308C301.927 52.2975 302.128 51.8136 302.13 51.1798C302.133 50.5461 301.934 50.0608 301.486 49.6243C301.037 49.1878 300.551 48.9873 299.913 48.9851L285.301 48.934C283.226 48.9267 281.227 48.5221 279.38 47.7452C277.533 46.9683 275.924 45.8941 274.578 44.5722C273.233 43.2503 272.164 41.656 271.383 39.8267C270.601 38.0097 270.208 36.045 270.215 33.9947C270.223 31.9444 270.629 29.995 271.423 28.1959C272.217 26.4094 273.31 24.8226 274.677 23.4854C276.057 22.1482 277.673 21.0852 279.513 20.3461C281.341 19.5945 283.33 19.2287 285.405 19.2359L300.017 19.287C300.667 19.2893 301.155 19.0922 301.594 18.6588C302.046 18.2255 302.247 17.7416 302.25 17.1078C302.252 16.4741 302.054 15.9888 301.605 15.5523C301.157 15.1158 300.67 14.9153 300.032 14.9131L285.42 14.862C282.757 14.8527 280.206 15.3532 277.84 16.339C275.449 17.3372 273.331 18.7091 271.55 20.4176C269.769 22.1014 268.337 24.1467 267.317 26.4792Z" fill="#054491"/>
<path d="M21.3568 0.194951L3.23192 0.131553C2.01943 0.127312 1.04104 1.09313 1.03683 2.29845L0.973804 20.3161C0.969588 21.5214 1.94119 22.4941 3.15369 22.4983C4.36618 22.5025 5.34457 21.5367 5.34878 20.3314L5.39659 6.66284C5.40081 5.45752 6.37919 4.4917 7.59169 4.49595L21.3416 4.54404C22.5541 4.54828 23.5325 3.58247 23.5367 2.37715C23.5409 1.17183 22.5693 0.199192 21.3568 0.194951Z" fill="#054491"/>
<path d="M21.1415 61.7035L7.39153 61.6554C6.17904 61.6511 5.20743 60.6785 5.21165 59.4732L5.25946 45.8046C5.26368 44.5993 4.29207 43.6266 3.07958 43.6224C1.86708 43.6182 0.8887 44.584 0.884484 45.7893L0.82146 63.8069C0.817244 65.0123 1.78885 65.9849 3.00134 65.9891L21.1262 66.0525C22.3387 66.0568 23.3171 65.091 23.3213 63.8857C23.3256 62.6803 22.354 61.7077 21.1415 61.7035Z" fill="#054491"/>
<path d="M313.855 1.21802L295.73 1.15462C294.518 1.15038 293.54 2.1162 293.535 3.32152C293.531 4.52684 294.503 5.49947 295.715 5.50371L309.465 5.55181C310.678 5.55605 311.649 6.52869 311.645 7.73401L311.597 21.4026C311.593 22.6079 312.565 23.5805 313.777 23.5848C314.99 23.589 315.968 22.6232 315.972 21.4179L316.035 3.40022C316.039 2.1949 315.068 1.22226 313.855 1.21802Z" fill="#054491"/>
<path d="M313.703 44.7089C312.491 44.7046 311.512 45.6704 311.508 46.8758L311.46 60.5443C311.456 61.7496 310.478 62.7155 309.265 62.7112L295.515 62.6631C294.303 62.6589 293.324 63.6247 293.32 64.83C293.316 66.0353 294.287 67.008 295.5 67.0122L313.625 67.0756C314.837 67.0799 315.816 66.114 315.82 64.9087L315.883 46.8911C315.887 45.6857 314.916 44.7131 313.703 44.7089Z" fill="#054491"/>
</svg>
