<svg width="198" height="157" viewBox="0 0 198 157" fill="none" xmlns="http://www.w3.org/2000/svg">
<path d="M129.337 85L166.002 120.725H92.6721L129.337 85Z" fill="white"/>
<path d="M111 119H147V148H111V119Z" fill="white"/>
<path fill-rule="evenodd" clip-rule="evenodd" d="M47 23.4713C47 11.6148 70.4098 2 99.2842 2C128.159 2 151.568 11.6148 151.568 23.4713C151.568 35.3278 128.159 44.9426 99.2842 44.9426C70.4098 44.9426 47 35.3278 47 23.4713Z" fill="white"/>
<path fill-rule="evenodd" clip-rule="evenodd" d="M104.857 81.822C111.144 78.1219 118.457 76.0018 126.27 76.0018C128.806 76.0018 131.302 76.2314 133.718 76.6635C144.66 72.7474 151.568 66.9947 151.568 60.5938V56.6911V28.1978C151.568 40.0002 128.159 49.561 99.2842 49.561C70.4098 49.561 47 40.0002 47 28.1978V56.6911V60.5803C47 72.3827 70.4098 81.9436 99.2842 81.9436C101.16 81.9436 103.022 81.903 104.857 81.822Z" fill="white"/>
<path fill-rule="evenodd" clip-rule="evenodd" d="M151.568 84.4012V64.7935C151.568 69.898 147.197 74.5703 139.897 78.2434C144.12 79.6883 148.06 81.7815 151.568 84.4012Z" fill="white"/>
<path fill-rule="evenodd" clip-rule="evenodd" d="M98.7984 86.1567C70.14 86.0487 47 76.5284 47 64.7935V93.2868V97.176C47 106.791 62.5706 114.934 83.9835 117.607C84.1859 105.022 89.8933 93.773 98.7984 86.1567Z" fill="white"/>
<path fill-rule="evenodd" clip-rule="evenodd" d="M84.1049 121.699C62.6245 119.039 47 110.896 47 101.254V129.748V133.637C47 145.439 70.4098 155 99.2842 155C101.187 155 103.062 154.959 104.897 154.878C93.2934 148.059 85.2113 135.865 84.1049 121.699Z" fill="white"/>
</svg>
