<svg width="198" height="157" viewBox="0 0 198 157" fill="none" xmlns="http://www.w3.org/2000/svg">
<path d="M64 4.5H141.158V137.243H29.5V39C29.5 19.9462 44.9462 4.5 64 4.5Z" stroke="white" stroke-width="5"/>
<rect x="44.2031" y="29.9548" width="24.7293" height="10.2143" fill="white"/>
<rect x="99.0376" y="29.9548" width="27.9549" height="10.2143" fill="white"/>
<rect x="44.2031" y="46.6204" width="10.7519" height="10.2143" fill="white"/>
<rect x="91.5112" y="46.6204" width="35.4812" height="10.2143" fill="white"/>
<rect x="44.2031" y="62.2106" width="19.891" height="10.2143" fill="white"/>
<rect x="116.778" y="62.2106" width="10.2143" height="10.2143" fill="white"/>
<rect x="44.2031" y="78.8759" width="60.2105" height="10.2143" fill="white"/>
<rect x="124.842" y="78.8759" width="2.15038" height="10.2143" fill="white"/>
<rect x="44.2031" y="95.5414" width="12.3647" height="10.2143" fill="white"/>
<rect x="97.4248" y="95.5414" width="29.5677" height="10.2143" fill="white"/>
<rect x="44.2031" y="112.207" width="82.7895" height="10.2143" fill="white"/>
<rect x="73" y="30" width="22" height="10" fill="white"/>
<rect x="59" y="47" width="28" height="10" fill="white"/>
<rect x="68.24" y="62.2106" width="44.38" height="10.2143" fill="white"/>
<rect x="108.56" y="78.8759" width="12.13" height="10.2143" fill="white"/>
<rect x="60.72" y="95.5414" width="32.56" height="10.2143" fill="white"/>
<path d="M58.5 140L58.5 153M168.5 20L168.5 151M171 152.5H56M167 22.5L144 22.5" stroke="white" stroke-width="5"/>
</svg>
