<svg width="198" height="157" viewBox="0 0 198 157" fill="none" xmlns="http://www.w3.org/2000/svg">
<path fill-rule="evenodd" clip-rule="evenodd" d="M46.2949 20.539C46.2949 16.6996 49.4013 13.5872 53.2341 13.5872H61.6384C65.4712 13.5872 68.5776 16.6996 68.5776 20.539V46.084C68.5776 49.9235 65.4712 53.0358 61.6384 53.0358H53.2341C49.4013 53.0358 46.2949 49.9235 46.2949 46.084V20.539Z" fill="white"/>
<path fill-rule="evenodd" clip-rule="evenodd" d="M65.3218 31.9915C65.3218 30.8345 66.2579 29.8965 67.4127 29.8965H120.718C121.873 29.8965 122.809 30.8345 122.809 31.9915V34.5291C122.809 35.6862 121.873 36.6242 120.718 36.6242H67.4127C66.2579 36.6242 65.3218 35.6862 65.3218 34.5291V31.9915Z" fill="white"/>
<path fill-rule="evenodd" clip-rule="evenodd" d="M4.375 35.8473L16.3181 23.8823L32.4572 52.0163L4.375 35.8473Z" fill="white"/>
<path fill-rule="evenodd" clip-rule="evenodd" d="M34.819 23.4444C35.4183 23.3555 35.9769 23.7704 36.0654 24.3711L37.1439 31.6692C37.2335 32.27 36.8194 32.829 36.2191 32.918L34.9045 33.1131C34.3042 33.2019 33.7466 32.7871 33.6581 32.1864L32.5796 24.8882C32.49 24.2875 32.9041 23.7284 33.5044 23.6395L34.819 23.4444Z" fill="white"/>
<path fill-rule="evenodd" clip-rule="evenodd" d="M3.42285 51.9486C3.60295 51.3688 4.21852 51.0452 4.79746 51.2258L19.7034 55.8785C20.2813 56.059 20.6049 56.6757 20.4248 57.2557L20.029 58.5268C19.8489 59.1068 19.2333 59.4299 18.6544 59.2495L3.74946 54.5972C3.17052 54.4168 2.84697 53.8001 3.02808 53.2201L3.42285 51.9486Z" fill="white"/>
<path fill-rule="evenodd" clip-rule="evenodd" d="M0 69.7387C0 68.5644 0.950317 67.6123 2.12244 67.6123H90.5692C91.7414 67.6123 92.6917 68.5644 92.6917 69.7387V72.3156C92.6917 73.4899 91.7414 74.4419 90.5692 74.4419H2.12244C0.950317 74.4419 0 73.4899 0 72.3156V69.7387Z" fill="white"/>
<path fill-rule="evenodd" clip-rule="evenodd" d="M12.1079 85.3266C12.1079 83.7629 13.3736 82.4949 14.9344 82.4949H146.03C147.59 82.4949 148.856 83.7629 148.856 85.3266V103.924C148.856 105.487 147.59 106.755 146.03 106.755H14.9344C13.3736 106.755 12.1079 105.487 12.1079 103.924V85.3266Z" fill="white"/>
<path fill-rule="evenodd" clip-rule="evenodd" d="M128.201 43.9126C128.201 24.6309 143.827 9 163.101 9C182.375 9 198 24.6309 198 43.9126C198 63.1945 182.375 78.8251 163.101 78.8251C143.827 78.8251 128.201 63.1945 128.201 43.9126ZM134.197 43.9126C134.197 59.8765 147.138 72.8181 163.101 72.8181C179.064 72.8181 192.004 59.8765 192.004 43.9126C192.004 27.9485 179.064 15.0071 163.101 15.0071C147.138 15.0071 134.197 27.9485 134.197 43.9126Z" fill="white"/>
<path fill-rule="evenodd" clip-rule="evenodd" d="M171.692 36.522C176.636 36.522 181.58 36.522 186.524 36.522C186.524 37.8664 186.524 39.2109 186.524 40.5553C184.864 40.5553 183.206 40.5553 181.547 40.5553C181.547 44.6555 181.547 48.7557 181.547 52.8563C179.921 52.8563 178.295 52.8563 176.668 52.8563C176.668 48.7557 176.668 44.6555 176.668 40.5553C175.009 40.5553 173.351 40.5553 171.692 40.5553C171.692 39.2109 171.692 37.8664 171.692 36.522ZM158.206 36.522C162.227 36.522 166.248 36.522 170.269 36.522C170.269 37.6919 170.269 38.8618 170.269 40.0317C167.882 40.0317 165.494 40.0317 163.107 40.0317C163.107 40.9824 163.107 41.9332 163.107 42.884C165.146 42.884 167.185 42.884 169.224 42.884C169.224 43.9834 169.224 45.0826 169.224 46.182C167.185 46.182 165.146 46.182 163.107 46.182C163.107 48.4066 163.107 50.6313 163.107 52.8563C161.473 52.8563 159.84 52.8563 158.206 52.8563C158.206 47.4113 158.206 41.9666 158.206 36.522ZM139.878 36.522C141.397 36.522 142.916 36.522 144.434 36.522C146.416 39.5342 148.398 42.5465 150.38 45.5588C150.38 42.5465 150.38 39.5342 150.38 36.522C151.913 36.522 153.446 36.522 154.979 36.522C154.979 41.9666 154.979 47.4113 154.979 52.8563C153.446 52.8563 151.913 52.8563 150.38 52.8563C148.408 49.8665 146.438 46.877 144.467 43.8875C144.467 46.877 144.467 49.8665 144.467 52.8563C142.937 52.8563 141.408 52.8563 139.878 52.8563C139.878 47.4113 139.878 41.9666 139.878 36.522Z" fill="white"/>
<path fill-rule="evenodd" clip-rule="evenodd" d="M50.9753 115.301C50.9753 114.184 51.8789 113.279 52.994 113.279H137.985C139.101 113.279 140.004 114.184 140.004 115.301V128.586C140.004 129.703 139.101 130.608 137.985 130.608H52.994C51.8789 130.608 50.9753 129.703 50.9753 128.586V115.301Z" fill="white"/>
<path fill-rule="evenodd" clip-rule="evenodd" d="M48.1265 138.78C48.1265 137.814 48.9089 137.03 49.8735 137.03H78.7351C79.6996 137.03 80.4821 137.814 80.4821 138.78V144.25C80.4821 145.216 79.6996 146 78.7351 146H49.8735C48.9089 146 48.1265 145.216 48.1265 144.25V138.78Z" fill="white"/>
<path fill-rule="evenodd" clip-rule="evenodd" d="M112.024 138.78C112.024 137.814 112.806 137.03 113.771 137.03H142.632C143.597 137.03 144.379 137.814 144.379 138.78V144.25C144.379 145.216 143.597 146 142.632 146H113.771C112.806 146 112.024 145.216 112.024 144.25V138.78Z" fill="white"/>
<path fill-rule="evenodd" clip-rule="evenodd" d="M59.4204 131.135C59.4204 130.169 60.2029 129.385 61.1674 129.385H69.4761C70.4406 129.385 71.2231 130.169 71.2231 131.135V136.605C71.2231 137.571 70.4406 138.355 69.4761 138.355H61.1674C60.2029 138.355 59.4204 137.571 59.4204 136.605V131.135Z" fill="white"/>
<path fill-rule="evenodd" clip-rule="evenodd" d="M120.164 131.135C120.164 130.169 120.946 129.385 121.911 129.385H130.219C131.184 129.385 131.966 130.169 131.966 131.135V136.605C131.966 137.571 131.184 138.355 130.219 138.355H121.911C120.946 138.355 120.164 137.571 120.164 136.605V131.135Z" fill="white"/>
</svg>
