<svg width="198" height="157" viewBox="0 0 198 157" fill="none" xmlns="http://www.w3.org/2000/svg">
<path d="M55.1519 105.262C55.9105 104.504 56.9394 104.078 58.012 104.078H156.973C158.776 104.078 159.678 106.258 158.403 107.532L138.848 127.071C138.09 127.829 137.061 128.255 135.988 128.255H37.0273C35.2245 128.255 34.3222 126.075 35.5974 124.801L55.1519 105.262Z" fill="white"/>
<path d="M55.1519 32.2657C55.9105 31.5076 56.9394 31.0818 58.012 31.0818H156.973C158.776 31.0818 159.678 33.2617 158.403 34.536L138.848 54.0749C138.09 54.8329 137.061 55.2588 135.988 55.2588H37.0273C35.2245 55.2588 34.3222 53.0791 35.5974 51.8048L55.1519 32.2657Z" fill="white"/>
<path d="M138.848 68.5313C138.09 67.7733 137.061 67.3474 135.988 67.3474H37.0273C35.2245 67.3474 34.3222 69.5274 35.5974 70.8014L55.1519 90.3406C55.9105 91.0986 56.9394 91.5245 58.012 91.5245H156.973C158.776 91.5245 159.678 89.3445 158.403 88.0702L138.848 68.5313Z" fill="white"/>
</svg>
