<svg width="125" height="153" viewBox="0 0 125 153" fill="none" xmlns="http://www.w3.org/2000/svg">
<path d="M82.3371 83L119.002 118.725H45.6721L82.3371 83Z" fill="white"/>
<rect x="64" y="117" width="36" height="29" fill="white"/>
<path fill-rule="evenodd" clip-rule="evenodd" d="M0 21.4713C0 9.61483 23.4098 0 52.2842 0C81.1585 0 104.568 9.61483 104.568 21.4713C104.568 33.3278 81.1585 42.9426 52.2842 42.9426C23.4098 42.9426 0 33.3278 0 21.4713Z" fill="white"/>
<path fill-rule="evenodd" clip-rule="evenodd" d="M57.8567 79.822C64.1442 76.1219 71.4573 74.0018 79.2696 74.0018C81.8062 74.0018 84.3023 74.2314 86.7175 74.6635C97.6601 70.7474 104.568 64.9947 104.568 58.5938V54.6911V26.1978C104.568 38.0002 81.1585 47.561 52.2842 47.561C23.4098 47.561 0 38.0002 0 26.1978V54.6911V58.5803C0 70.3827 23.4098 79.9436 52.2842 79.9436C54.1597 79.9436 56.0216 79.903 57.8567 79.822Z" fill="white"/>
<path fill-rule="evenodd" clip-rule="evenodd" d="M104.568 82.4012V62.7935C104.568 67.898 100.197 72.5703 92.8972 76.2434C97.1204 77.6883 101.06 79.7815 104.568 82.4012Z" fill="white"/>
<path fill-rule="evenodd" clip-rule="evenodd" d="M51.7984 84.1567C23.14 84.0487 0 74.5284 0 62.7935V91.2868V95.176C0 104.791 15.5706 112.934 36.9835 115.607C37.1859 103.022 42.8933 91.773 51.7984 84.1567Z" fill="white"/>
<path fill-rule="evenodd" clip-rule="evenodd" d="M37.1049 119.699C15.6245 117.039 0 108.896 0 99.2542V127.748V131.637C0 143.439 23.4098 153 52.2842 153C54.1866 153 56.0621 152.959 57.8971 152.878C46.2934 146.059 38.2113 133.865 37.1049 119.699Z" fill="white"/>
</svg>
