<svg width="198" height="137" viewBox="0 0 198 137" fill="none" xmlns="http://www.w3.org/2000/svg">
<path fill-rule="evenodd" clip-rule="evenodd" d="M46.2949 11.539C46.2949 7.69962 49.4013 4.58716 53.2341 4.58716H61.6384C65.4712 4.58716 68.5776 7.69962 68.5776 11.539V37.084C68.5776 40.9235 65.4712 44.0358 61.6384 44.0358H53.2341C49.4013 44.0358 46.2949 40.9235 46.2949 37.084V11.539Z" fill="white"/>
<path fill-rule="evenodd" clip-rule="evenodd" d="M65.3217 22.9915C65.3217 21.8345 66.2577 20.8965 67.4126 20.8965H120.718C121.873 20.8965 122.809 21.8345 122.809 22.9915V25.5291C122.809 26.6862 121.873 27.6242 120.718 27.6242H67.4126C66.2577 27.6242 65.3217 26.6862 65.3217 25.5291V22.9915Z" fill="white"/>
<path fill-rule="evenodd" clip-rule="evenodd" d="M4.37512 26.8473L16.3182 14.8823L32.4573 43.0163L4.37512 26.8473Z" fill="white"/>
<path fill-rule="evenodd" clip-rule="evenodd" d="M34.8189 14.4444C35.4182 14.3555 35.9768 14.7704 36.0653 15.3711L37.1438 22.6692C37.2334 23.27 36.8192 23.829 36.2189 23.918L34.9044 24.1131C34.3041 24.2019 33.7465 23.7871 33.658 23.1864L32.5794 15.8882C32.4899 15.2875 32.904 14.7284 33.5043 14.6395L34.8189 14.4444Z" fill="white"/>
<path fill-rule="evenodd" clip-rule="evenodd" d="M3.42279 42.9486C3.60289 42.3688 4.21846 42.0452 4.7974 42.2258L19.7034 46.8785C20.2813 47.059 20.6048 47.6757 20.4247 48.2557L20.0289 49.5268C19.8489 50.1068 19.2333 50.4299 18.6543 50.2495L3.7494 45.5972C3.17046 45.4168 2.8469 44.8001 3.02801 44.2201L3.42279 42.9486Z" fill="white"/>
<path fill-rule="evenodd" clip-rule="evenodd" d="M0 60.7387C0 59.5644 0.950317 58.6123 2.12244 58.6123H90.5692C91.7414 58.6123 92.6917 59.5644 92.6917 60.7387V63.3156C92.6917 64.4899 91.7414 65.4419 90.5692 65.4419H2.12244C0.950317 65.4419 0 64.4899 0 63.3156V60.7387Z" fill="white"/>
<path fill-rule="evenodd" clip-rule="evenodd" d="M12.1079 76.3266C12.1079 74.7629 13.3736 73.4949 14.9344 73.4949H146.03C147.59 73.4949 148.856 74.7629 148.856 76.3266V94.9235C148.856 96.4872 147.59 97.7553 146.03 97.7553H14.9344C13.3736 97.7553 12.1079 96.4872 12.1079 94.9235V76.3266Z" fill="white"/>
<path fill-rule="evenodd" clip-rule="evenodd" d="M128.201 34.9126C128.201 15.6309 143.827 0 163.101 0C182.375 0 198 15.6309 198 34.9126C198 54.1945 182.375 69.8251 163.101 69.8251C143.827 69.8251 128.201 54.1945 128.201 34.9126ZM134.197 34.9126C134.197 50.8765 147.138 63.8181 163.101 63.8181C179.064 63.8181 192.004 50.8765 192.004 34.9126C192.004 18.9485 179.064 6.00711 163.101 6.00711C147.138 6.00711 134.197 18.9485 134.197 34.9126Z" fill="white"/>
<path fill-rule="evenodd" clip-rule="evenodd" d="M171.692 27.522C176.636 27.522 181.58 27.522 186.524 27.522C186.524 28.8664 186.524 30.2109 186.524 31.5553C184.864 31.5553 183.206 31.5553 181.547 31.5553C181.547 35.6555 181.547 39.7557 181.547 43.8563C179.921 43.8563 178.295 43.8563 176.668 43.8563C176.668 39.7557 176.668 35.6555 176.668 31.5553C175.009 31.5553 173.351 31.5553 171.692 31.5553C171.692 30.2109 171.692 28.8664 171.692 27.522ZM158.206 27.522C162.227 27.522 166.248 27.522 170.269 27.522C170.269 28.6919 170.269 29.8618 170.269 31.0317C167.882 31.0317 165.494 31.0317 163.107 31.0317C163.107 31.9824 163.107 32.9332 163.107 33.884C165.146 33.884 167.185 33.884 169.224 33.884C169.224 34.9834 169.224 36.0826 169.224 37.182C167.185 37.182 165.146 37.182 163.107 37.182C163.107 39.4066 163.107 41.6313 163.107 43.8563C161.473 43.8563 159.84 43.8563 158.206 43.8563C158.206 38.4113 158.206 32.9666 158.206 27.522ZM139.878 27.522C141.397 27.522 142.916 27.522 144.434 27.522C146.416 30.5342 148.398 33.5465 150.38 36.5588C150.38 33.5465 150.38 30.5342 150.38 27.522C151.913 27.522 153.446 27.522 154.979 27.522C154.979 32.9666 154.979 38.4113 154.979 43.8563C153.446 43.8563 151.913 43.8563 150.38 43.8563C148.408 40.8665 146.438 37.877 144.467 34.8875C144.467 37.877 144.467 40.8665 144.467 43.8563C142.937 43.8563 141.408 43.8563 139.878 43.8563C139.878 38.4113 139.878 32.9666 139.878 27.522Z" fill="white"/>
<path fill-rule="evenodd" clip-rule="evenodd" d="M50.9753 106.301C50.9753 105.184 51.8789 104.279 52.994 104.279H137.985C139.101 104.279 140.004 105.184 140.004 106.301V119.586C140.004 120.703 139.101 121.608 137.985 121.608H52.994C51.8789 121.608 50.9753 120.703 50.9753 119.586V106.301Z" fill="white"/>
<path fill-rule="evenodd" clip-rule="evenodd" d="M48.1265 129.78C48.1265 128.814 48.9089 128.03 49.8735 128.03H78.7351C79.6996 128.03 80.4821 128.814 80.4821 129.78V135.25C80.4821 136.216 79.6996 137 78.7351 137H49.8735C48.9089 137 48.1265 136.216 48.1265 135.25V129.78Z" fill="white"/>
<path fill-rule="evenodd" clip-rule="evenodd" d="M112.024 129.78C112.024 128.814 112.806 128.03 113.771 128.03H142.632C143.597 128.03 144.379 128.814 144.379 129.78V135.25C144.379 136.216 143.597 137 142.632 137H113.771C112.806 137 112.024 136.216 112.024 135.25V129.78Z" fill="white"/>
<path fill-rule="evenodd" clip-rule="evenodd" d="M59.4204 122.135C59.4204 121.169 60.2029 120.385 61.1674 120.385H69.4761C70.4406 120.385 71.2231 121.169 71.2231 122.135V127.605C71.2231 128.571 70.4406 129.355 69.4761 129.355H61.1674C60.2029 129.355 59.4204 128.571 59.4204 127.605V122.135Z" fill="white"/>
<path fill-rule="evenodd" clip-rule="evenodd" d="M120.163 122.135C120.163 121.169 120.946 120.385 121.91 120.385H130.219C131.184 120.385 131.966 121.169 131.966 122.135V127.605C131.966 128.571 131.184 129.355 130.219 129.355H121.91C120.946 129.355 120.163 128.571 120.163 127.605V122.135Z" fill="white"/>
</svg>
