<svg width="198" height="157" viewBox="0 0 198 157" fill="none" xmlns="http://www.w3.org/2000/svg">
<line x1="50.0629" y1="31.9477" x2="155.012" y2="111.642" stroke="white" stroke-width="5"/>
<line x1="50.7331" y1="32.1575" x2="109.1" y2="136.545" stroke="white" stroke-width="5"/>
<line x1="112.547" y1="24.3425" x2="65.4037" y2="124.24" stroke="white" stroke-width="5"/>
<line x1="113.113" y1="21.0966" x2="155.766" y2="112.576" stroke="white" stroke-width="5"/>
<line x1="112.583" y1="23.3905" x2="31.7669" y2="101.401" stroke="white" stroke-width="5"/>
<line x1="169.429" y1="39.9982" x2="155.96" y2="114.08" stroke="white" stroke-width="5"/>
<line x1="166.866" y1="41.2728" x2="31.0494" y2="101.885" stroke="white" stroke-width="5"/>
<line x1="169.112" y1="39.1554" x2="109.061" y2="139.053" stroke="white" stroke-width="5"/>
<line x1="153.218" y1="115.555" x2="29.7483" y2="101.525" stroke="white" stroke-width="5"/>
<line x1="60.6752" y1="123.574" x2="46.0834" y2="33.7785" stroke="white" stroke-width="5"/>
<line x1="63.9334" y1="120.802" x2="107.709" y2="135.394" stroke="white" stroke-width="5"/>
<circle cx="48.4478" cy="31.1632" r="24.1632" fill="white"/>
<circle cx="30.1527" cy="99.8556" r="14.1527" fill="white"/>
<circle cx="153.73" cy="113.663" r="14.8431" fill="white"/>
<circle cx="110.236" cy="23.2239" r="10.7008" fill="white"/>
<circle cx="106.785" cy="137.826" r="14.1527" fill="white"/>
<circle cx="166.847" cy="39.793" r="14.1527" fill="white"/>
<circle cx="63.4235" cy="123.454" r="7.01531" fill="white"/>
</svg>
