<svg width="198" height="157" viewBox="0 0 198 157" fill="none" xmlns="http://www.w3.org/2000/svg">
<path d="M163.766 69.8678C162.291 69.8719 160.859 70.3658 159.695 71.2709C158.529 72.176 157.697 73.4415 157.329 74.8708H147.089V85.5272L140.419 78.8573L138.752 80.5245V45.686H157.329C157.875 47.8002 159.421 49.5141 161.469 50.2733C163.516 51.0326 165.805 50.741 167.597 49.4948C169.389 48.2472 170.458 46.2018 170.458 44.0187C170.458 41.8344 169.389 39.7888 167.597 38.5426C165.805 37.295 163.516 37.0047 161.469 37.7641C159.421 38.5233 157.875 40.2359 157.329 42.3499H138.752V14H63.7079V42.3499H47.8659V32.9454C49.9801 32.3993 51.6926 30.8532 52.4518 28.8064C53.2111 26.7582 52.9208 24.4694 51.6732 22.677C50.427 20.8847 48.3815 19.8159 46.1971 19.8159C44.0142 19.8159 41.9686 20.8847 40.721 22.677C39.4748 24.4694 39.1832 26.7583 39.9425 28.8064C40.7018 30.8532 42.4157 32.3992 44.5298 32.9454V45.6858H63.7076V74.8706H45.1295C44.5834 72.7564 43.0373 71.0425 40.9904 70.2833C38.9436 69.5241 36.6535 69.8157 34.8611 71.0619C33.0688 72.3095 32 74.3549 32 76.538C32 78.721 33.0688 80.7664 34.8611 82.0141C36.6534 83.2603 38.9438 83.5519 40.9904 82.7926C43.0371 82.0333 44.5833 80.3194 45.1295 78.2053H63.7076V104.888H54.5354V117.396H45.1295C44.5834 115.282 43.0373 113.569 40.9904 112.81C38.9436 112.051 36.6535 112.341 34.8611 113.587C33.0688 114.835 32 116.88 32 119.063C32 121.248 33.0688 123.293 34.8611 124.539C36.6534 125.787 38.9438 126.077 40.9904 125.318C43.0371 124.559 44.5833 122.846 45.1295 120.732H57.8713V108.224H63.7076V131.571H138.752V110.726H157.096V125.135V125.134C154.982 125.68 153.268 127.226 152.509 129.274C151.75 131.321 152.041 133.61 153.287 135.402C154.535 137.194 156.58 138.263 158.763 138.263C160.947 138.263 162.992 137.194 164.24 135.402C165.486 133.61 165.777 131.321 165.018 129.274C164.259 127.226 162.545 125.68 160.431 125.134V107.391H138.751L138.752 94.7329L142.772 90.7136H150.425V78.2057H157.329C157.748 79.8261 158.759 81.2305 160.164 82.1384C161.57 83.0476 163.264 83.3956 164.913 83.1136C166.563 82.8316 168.046 81.9389 169.069 80.6142C170.091 79.291 170.578 77.6293 170.434 75.9635C170.289 74.2964 169.524 72.7434 168.289 71.6153C167.054 70.486 165.44 69.8629 163.766 69.8684L163.766 69.8678ZM163.766 40.683C165.115 40.683 166.331 41.4959 166.847 42.7422C167.364 43.9884 167.078 45.4231 166.125 46.3762C165.17 47.3308 163.736 47.6156 162.49 47.0998C161.243 46.584 160.43 45.368 160.43 44.0186C160.43 42.1767 161.924 40.683 163.766 40.683ZM42.8628 26.508C42.8628 25.1586 43.6743 23.9426 44.9206 23.4267C46.1668 22.9109 47.6015 23.1956 48.5561 24.1489C49.5093 25.1035 49.7954 26.5382 49.2782 27.7844C48.7624 29.0306 47.5464 29.8436 46.197 29.8436C44.3552 29.8436 42.8628 28.3498 42.8628 26.508ZM38.6934 79.8745C37.3441 79.8745 36.128 79.0616 35.6109 77.8153C35.0951 76.5691 35.3812 75.1344 36.3344 74.1798C37.289 73.2266 38.7223 72.9419 39.9685 73.4577C41.2161 73.9735 42.0277 75.1895 42.0277 76.5389C42.0277 77.4234 41.6769 78.2721 41.0511 78.8979C40.4252 79.5224 39.5779 79.8745 38.6934 79.8745ZM38.6934 122.399C37.3441 122.399 36.128 121.586 35.6109 120.34C35.0951 119.093 35.3812 117.659 36.3344 116.705C37.289 115.751 38.7223 115.466 39.9685 115.982C41.2161 116.498 42.0277 117.715 42.0277 119.063C42.0277 119.948 41.6769 120.796 41.0511 121.422C40.4252 122.048 39.5779 122.399 38.6934 122.399ZM162.1 131.571C162.1 132.92 161.287 134.136 160.041 134.652C158.795 135.169 157.36 134.883 156.406 133.93C155.452 132.975 155.168 131.541 155.684 130.294C156.199 129.048 157.415 128.235 158.765 128.235C159.649 128.235 160.498 128.587 161.124 129.213C161.748 129.838 162.1 130.686 162.1 131.571ZM140.421 83.592L142.771 85.9607L141.353 87.3789L138.753 90.0131L117.457 111.309L115.088 108.959L138.752 85.2952L140.421 83.592ZM67.042 17.3372H135.417V33.1792H67.042V17.3372ZM135.417 128.236H67.042V36.5147H135.417V83.909L110.401 108.925L117.489 115.995L135.417 98.0674V128.236ZM163.767 79.8748C162.417 79.8748 161.201 79.0619 160.685 77.8156C160.17 76.5694 160.454 75.1347 161.409 74.1802C162.362 73.2269 163.797 72.9422 165.043 73.458C166.289 73.9738 167.102 75.1898 167.102 76.5392C167.102 77.4237 166.75 78.2724 166.126 78.8983C165.5 79.5227 164.651 79.8748 163.767 79.8748Z" fill="white"/>
<path d="M78.7175 57.3596H123.745V60.6953H78.7175V57.3596Z" fill="white"/>
<path d="M78.7175 69.8682H123.745V73.2039H78.7175V69.8682Z" fill="white"/>
<path d="M78.7175 82.3757H123.745V85.7114H78.7175V82.3757Z" fill="white"/>
<path d="M78.7175 109.892H101.231V113.228H78.7175V109.892Z" fill="white"/>
<path d="M121.242 21.5051H131.247V26.508H121.242V21.5051Z" fill="white"/>
<path d="M107.033 119.364L116.706 116.778L109.636 109.708L107.033 119.364Z" fill="white"/>
<path d="M118.742 134.908H133.75V138.244H118.742V134.908Z" fill="white"/>
<path d="M118.742 142.412H133.75V145.748H118.742V142.412Z" fill="white"/>
</svg>
