<svg width="139" height="132" viewBox="0 0 139 132" fill="none" xmlns="http://www.w3.org/2000/svg">
<path d="M131.766 55.8678C130.291 55.8719 128.859 56.3658 127.695 57.2709C126.529 58.176 125.697 59.4415 125.329 60.8708H115.089V71.5272L108.419 64.8573L106.752 66.5245V31.686H125.329C125.875 33.8002 127.421 35.5141 129.469 36.2733C131.516 37.0326 133.805 36.741 135.597 35.4948C137.389 34.2472 138.458 32.2018 138.458 30.0187C138.458 27.8344 137.389 25.7888 135.597 24.5426C133.805 23.295 131.516 23.0047 129.469 23.7641C127.421 24.5233 125.875 26.2359 125.329 28.3499H106.752V0H31.7079V28.3499H15.8659V18.9454C17.9801 18.3993 19.6926 16.8532 20.4518 14.8064C21.2111 12.7582 20.9208 10.4694 19.6732 8.67704C18.427 6.88472 16.3815 5.81591 14.1971 5.81591C12.0142 5.81591 9.96865 6.88472 8.72102 8.67704C7.47477 10.4694 7.18317 12.7583 7.94248 14.8064C8.70176 16.8532 10.4157 18.3992 12.5298 18.9454V31.6858H31.7076V60.8706H13.1295C12.5834 58.7564 11.0373 57.0425 8.99045 56.2833C6.94361 55.5241 4.65351 55.8157 2.86112 57.0619C1.06881 58.3095 0 60.3549 0 62.538C0 64.721 1.06881 66.7664 2.86112 68.0141C4.65344 69.2603 6.94382 69.5519 8.99045 68.7926C11.0371 68.0333 12.5833 66.3194 13.1295 64.2053H31.7076V90.8879H22.5354V103.396H13.1295C12.5834 101.282 11.0373 99.5692 8.99045 98.81C6.94361 98.0507 4.65351 98.3409 2.86112 99.5871C1.06881 100.835 0 102.88 0 105.063C0 107.248 1.06881 109.293 2.86112 110.539C4.65344 111.787 6.94382 112.077 8.99045 111.318C11.0371 110.559 12.5833 108.846 13.1295 106.732H25.8713V94.224H31.7076V117.571H106.752V96.7263H125.096V111.135V111.134C122.982 111.68 121.268 113.226 120.509 115.274C119.75 117.321 120.041 119.61 121.287 121.402C122.535 123.194 124.58 124.263 126.763 124.263C128.947 124.263 130.992 123.194 132.24 121.402C133.486 119.61 133.777 117.321 133.018 115.274C132.259 113.226 130.545 111.68 128.431 111.134V93.3905H106.751L106.752 80.7329L110.772 76.7136H118.425V64.2057H125.329C125.748 65.8261 126.759 67.2305 128.164 68.1384C129.57 69.0476 131.264 69.3956 132.913 69.1136C134.563 68.8316 136.046 67.9389 137.069 66.6142C138.091 65.291 138.578 63.6293 138.434 61.9635C138.289 60.2964 137.524 58.7434 136.289 57.6153C135.054 56.486 133.44 55.8629 131.766 55.8684L131.766 55.8678ZM131.766 26.683C133.115 26.683 134.331 27.4959 134.847 28.7422C135.364 29.9884 135.078 31.4231 134.125 32.3762C133.17 33.3308 131.736 33.6156 130.49 33.0998C129.243 32.584 128.43 31.368 128.43 30.0186C128.43 28.1767 129.924 26.683 131.766 26.683ZM10.8628 12.508C10.8628 11.1586 11.6743 9.94255 12.9206 9.42674C14.1668 8.91093 15.6015 9.19565 16.5561 10.1489C17.5093 11.1035 17.7954 12.5382 17.2782 13.7844C16.7624 15.0306 15.5464 15.8436 14.197 15.8436C12.3552 15.8436 10.8628 14.3498 10.8628 12.508ZM6.69345 65.8745C5.34406 65.8745 4.12805 65.0616 3.61086 63.8153C3.09505 62.5691 3.38115 61.1344 4.3344 60.1798C5.28902 59.2266 6.72233 58.9419 7.96847 59.4577C9.2161 59.9735 10.0277 61.1895 10.0277 62.5389C10.0277 63.4234 9.67691 64.2721 9.05105 64.8979C8.4252 65.5224 7.57792 65.8745 6.69345 65.8745ZM6.69345 108.399C5.34406 108.399 4.12805 107.586 3.61086 106.34C3.09505 105.093 3.38115 103.659 4.3344 102.705C5.28902 101.751 6.72233 101.466 7.96847 101.982C9.2161 102.498 10.0277 103.715 10.0277 105.063C10.0277 105.948 9.67691 106.796 9.05105 107.422C8.4252 108.048 7.57792 108.399 6.69345 108.399ZM130.1 117.571C130.1 118.92 129.287 120.136 128.041 120.652C126.795 121.169 125.36 120.883 124.406 119.93C123.452 118.975 123.168 117.541 123.684 116.294C124.199 115.048 125.415 114.235 126.765 114.235C127.649 114.235 128.498 114.587 129.124 115.213C129.748 115.838 130.1 116.686 130.1 117.571ZM108.421 69.592L110.771 71.9607L109.353 73.3789L106.753 76.0131L85.4572 97.3093L83.0885 94.9585L106.752 71.2952L108.421 69.592ZM35.042 3.33721H103.417V19.1792H35.042V3.33721ZM103.417 114.236H35.042V22.5147H103.417V69.909L78.4012 94.9245L85.4893 101.995L103.417 84.0674V114.236ZM131.767 65.8748C130.417 65.8748 129.201 65.0619 128.685 63.8156C128.17 62.5694 128.454 61.1347 129.409 60.1802C130.362 59.2269 131.797 58.9422 133.043 59.458C134.289 59.9738 135.102 61.1898 135.102 62.5392C135.102 63.4237 134.75 64.2724 134.126 64.8983C133.5 65.5227 132.651 65.8748 131.767 65.8748Z" fill="white"/>
<path d="M46.7175 43.3596H91.7455V46.6953H46.7175V43.3596Z" fill="white"/>
<path d="M46.7175 55.8682H91.7455V59.2039H46.7175V55.8682Z" fill="white"/>
<path d="M46.7175 68.3757H91.7455V71.7114H46.7175V68.3757Z" fill="white"/>
<path d="M46.7175 95.8918H69.2311V99.2275H46.7175V95.8918Z" fill="white"/>
<path d="M89.2417 7.50513H99.2474V12.508H89.2417V7.50513Z" fill="white"/>
<path d="M75.033 105.364L84.7058 102.778L77.6356 95.708L75.033 105.364Z" fill="white"/>
<path d="M86.7416 120.908H101.75V124.244H86.7416V120.908Z" fill="white"/>
<path d="M86.7416 128.412H101.75V131.748H86.7416V128.412Z" fill="white"/>
</svg>
