<svg width="114" height="90" viewBox="0 0 114 90" fill="none" xmlns="http://www.w3.org/2000/svg">
<path d="M18.5267 68.198C19.2241 67.5009 20.1701 67.1096 21.1561 67.1096H112.136C113.794 67.1096 114.623 69.1135 113.451 70.2851L95.4734 88.2483C94.776 88.9454 93.8301 89.3369 92.8441 89.3369H1.86376C0.206377 89.3369 -0.623172 87.3327 0.549207 86.1612L18.5267 68.198Z" fill="white"/>
<path d="M18.5267 1.08848C19.2241 0.391498 20.1701 0 21.1561 0H112.136C113.794 0 114.623 2.00414 113.451 3.17568L95.4734 21.1389C94.776 21.8357 93.8301 22.2273 92.8441 22.2273H1.86376C0.206377 22.2273 -0.623172 20.2233 0.549207 19.0518L18.5267 1.08848Z" fill="white"/>
<path d="M95.4734 34.4295C94.776 33.7326 93.8301 33.3411 92.8441 33.3411H1.86376C0.206377 33.3411 -0.623172 35.3453 0.549207 36.5165L18.5267 54.48C19.2241 55.1768 20.1701 55.5684 21.1561 55.5684H112.136C113.794 55.5684 114.623 53.5642 113.451 52.3926L95.4734 34.4295Z" fill="white"/>
</svg>
