<svg width="198" height="157" viewBox="0 0 198 157" fill="none" xmlns="http://www.w3.org/2000/svg">
<path d="M99.4998 16C65.0371 16 37 44.0375 37 78.5002C37 112.963 65.0371 141 99.4998 141C133.963 141 162 112.963 162 78.5002C162 44.0375 133.963 16 99.4998 16ZM89.8588 22.3504C84.7856 26.6937 79.9287 32.1006 76.0268 37.8563C74.2696 40.4486 72.6898 43.1253 71.2869 45.8706H52.8281C61.383 33.6701 74.593 24.9637 89.8588 22.3504ZM96.7346 106.182H74.8448C71.5508 99.0425 69.276 90.8069 68.894 81.5563H96.7346V106.182ZM49.3985 51.4011H68.741C65.5135 59.2517 63.6869 67.5621 63.3603 76.0263H42.588C42.9692 67.1444 45.39 58.7824 49.3985 51.4011ZM42.613 81.5567H63.3581C63.6762 90.1536 65.4847 98.388 68.7569 106.182H49.7237C45.6124 98.8183 43.0857 90.4559 42.613 81.5567ZM53.241 111.712H71.365C72.7473 114.348 74.3028 116.929 76.0368 119.45C80.6374 126.139 85.5823 131.115 89.7589 134.633C74.7799 132.041 61.7871 123.581 53.241 111.712ZM96.7346 133.093C90.5575 128.569 83.2857 121.354 77.7143 111.712H96.7346V133.093ZM96.7346 76.0263H68.894C69.2384 67.4283 71.1943 59.1894 74.732 51.4011H96.735V76.0263H96.7346ZM96.7346 45.8706H77.5528C78.4952 44.2108 79.5106 42.573 80.6042 40.9596C86.2976 32.5607 92.5385 27.0609 96.7346 23.9443V45.8706ZM156.412 76.0263H135.64C135.313 67.5621 133.487 59.2517 130.259 51.4011H149.601C153.61 58.7824 156.031 67.1444 156.412 76.0263ZM146.172 45.8706H127.714C126.311 43.1253 124.731 40.4486 122.974 37.8563C119.072 32.1002 114.214 26.6948 109.14 22.35C124.406 24.9634 137.616 33.6697 146.172 45.8706ZM102.265 23.9439C106.461 27.0605 112.702 32.5603 118.396 40.9592C119.489 42.5726 120.504 44.2104 121.447 45.8703H102.265V23.9439ZM102.265 51.4011H124.268C127.806 59.1894 129.762 67.4283 130.106 76.0263H102.265V51.4011ZM102.265 81.5567H130.106C129.724 90.8073 127.449 99.0428 124.155 106.182H102.265V81.5567ZM102.265 111.712H121.285C115.714 121.354 108.442 128.569 102.265 133.093V111.712ZM109.242 134.633C113.418 131.115 118.363 126.139 122.963 119.451C124.697 116.929 126.253 114.348 127.635 111.712H145.759C137.213 123.58 124.221 132.041 109.242 134.633ZM149.276 106.182H130.244C133.516 98.3877 135.324 90.1536 135.642 81.5563H156.387C155.914 90.4559 153.388 98.8183 149.276 106.182Z" fill="white"/>
</svg>
