<svg width="125" height="125" viewBox="0 0 125 125" fill="none" xmlns="http://www.w3.org/2000/svg">
<path d="M62.4998 0C28.0371 0 0 28.0375 0 62.5002C0 96.9626 28.0371 125 62.4998 125C96.9626 125 125 96.9629 125 62.5002C125 28.0375 96.9629 0 62.4998 0ZM52.8588 6.35042C47.7856 10.6937 42.9287 16.1006 39.0268 21.8563C37.2696 24.4486 35.6898 27.1253 34.2869 29.8706H15.8281C24.383 17.6701 37.593 8.96373 52.8588 6.35042ZM59.7346 90.1815H37.8448C34.5508 83.0425 32.276 74.8069 31.894 65.5563H59.7346V90.1815ZM12.3985 35.4011H31.741C28.5135 43.2517 26.6869 51.5621 26.3603 60.0263H5.58795C5.96918 51.1444 8.39004 42.7824 12.3985 35.4011ZM5.61302 65.5567H26.3581C26.6762 74.1536 28.4847 82.388 31.7569 90.1819H12.7237C8.61236 82.8183 6.08569 74.4559 5.61302 65.5567ZM16.241 95.712H34.365C35.7473 98.3478 37.3028 100.929 39.0368 103.45C43.6374 110.139 48.5823 115.115 52.7589 118.633C37.7799 116.041 24.7871 107.581 16.241 95.712ZM59.7346 117.093C53.5575 112.569 46.2857 105.354 40.7143 95.712H59.7346V117.093ZM59.7346 60.0263H31.894C32.2384 51.4283 34.1943 43.1894 37.732 35.4011H59.735V60.0263H59.7346ZM59.7346 29.8706H40.5528C41.4952 28.2108 42.5106 26.573 43.6042 24.9596C49.2976 16.5607 55.5385 11.0609 59.7346 7.94429V29.8706ZM119.412 60.0263H98.6398C98.3131 51.5621 96.4866 43.2517 93.259 35.4011H112.601C116.61 42.7824 119.031 51.1444 119.412 60.0263ZM109.172 29.8706H90.7139C89.311 27.1253 87.7308 24.4486 85.974 21.8563C82.0721 16.1002 77.2137 10.6948 72.1401 6.35005C87.406 8.96336 100.616 17.6697 109.172 29.8706ZM65.2651 7.94392C69.4612 11.0605 75.7021 16.5603 81.3955 24.9592C82.4891 26.5726 83.5044 28.2104 84.4468 29.8703H65.2651V7.94392ZM65.2651 35.4011H87.2681C90.8057 43.1894 92.7617 51.4283 93.106 60.0263H65.2651V35.4011ZM65.2651 65.5567H93.106C92.7244 74.8073 90.4492 83.0428 87.1553 90.1819H65.2651V65.5567ZM65.2651 95.712H84.2853C78.714 105.354 71.4422 112.569 65.2651 117.093V95.712ZM72.2423 118.633C76.4185 115.115 81.3631 110.139 85.9633 103.451C87.6972 100.929 89.2528 98.3481 90.635 95.7123H108.759C100.213 107.58 87.2209 116.041 72.2423 118.633ZM112.276 90.1815H93.2435C96.5157 82.3877 98.3242 74.1536 98.6423 65.5563H119.387C118.914 74.4559 116.388 82.8183 112.276 90.1815Z" fill="white"/>
</svg>
