<svg width="203" height="91" viewBox="0 0 203 91" fill="none" xmlns="http://www.w3.org/2000/svg">
<path d="M45.2022 29.3402V22.6469C45.2022 20.2172 43.7352 18.0625 41.4888 17.0998L0 0V3.71337L36.9961 18.9794C38.2797 19.4837 38.2797 21.3175 36.9961 21.8217L0 37.0878V51.9871L22.2802 42.7725L36.9503 48.8239C38.2339 49.3282 38.2339 51.1619 36.9503 51.6662L0 66.9323V90.5419L41.4888 73.4421C43.7352 72.5252 45.2022 70.3247 45.2022 67.895V52.5372C45.2022 50.1075 43.7352 47.9528 41.4888 46.9901L26.7729 40.9387L41.4888 34.8873C43.7352 33.9704 45.2022 31.7699 45.2022 29.3402Z" fill="white"/>
<path d="M66.2904 33.4203L72.8003 58.772L80.0895 33.4203H87.0578L93.9344 58.772L100.719 33.4203H105.854L97.0976 63.9982H90.5878L83.3903 37.6379L75.9177 63.9982H69.3162L60.835 33.4203H66.2904Z" fill="white"/>
<path d="M113.693 50.1992C113.877 52.7206 114.152 54.0043 114.977 55.6088C116.49 58.497 119.928 60.3766 123.366 60.3766C127.538 60.3766 130.243 58.4053 131.389 54.5086H137.074C135.652 61.1101 130.655 64.7776 123.275 64.7776C114.06 64.7776 108.192 58.4511 108.192 48.5488C108.192 38.8758 114.06 32.4117 122.816 32.4117C132.122 32.4117 137.165 38.7382 137.165 50.1075H113.693V50.1992ZM130.105 40.847C128.684 38.4173 125.796 36.9503 122.816 36.9503C117.682 36.9503 114.427 40.2052 113.785 46.0733H131.572C131.297 43.3685 130.93 42.0848 130.105 40.847Z" fill="white"/>
<path d="M142.3 21.7759H147.526V38.0047C149.681 34.383 152.661 32.6868 157.016 32.6868C164.58 32.6868 169.99 39.2883 169.99 48.7322C169.99 58.176 164.855 64.5942 157.062 64.5942C152.798 64.5942 150.002 62.898 147.297 58.9095V63.9524H142.254V21.7759H142.3ZM147.618 48.5946C147.618 55.2879 151.423 60.239 156.374 60.239C161.142 60.239 164.305 55.7463 164.305 48.778C164.305 41.4888 161.142 36.9502 156.191 36.9502C151.239 36.9502 147.618 41.718 147.618 48.5946Z" fill="white"/>
<path d="M179.479 51.1162C179.388 56.5258 182.826 60.0558 188.235 60.0558C193.095 60.0558 196.625 56.9843 196.625 52.7666C196.625 48.4573 193.278 45.7983 187.869 45.7983C187.319 45.7983 186.86 45.7983 186.081 45.89V41.2139C186.723 41.2139 187.089 41.2139 187.456 41.2139C193.049 41.2139 196.304 38.7842 196.304 34.429C196.304 30.3489 193.141 27.7358 188.373 27.7358C183.238 27.7358 180.259 30.8073 180.075 36.2169H174.482C174.849 27.8275 179.984 22.968 188.465 22.968C196.304 22.968 201.805 27.4607 201.805 33.9706C201.805 38.2799 198.734 42.2683 194.608 43.3686C199.651 44.6522 202.355 48.0447 202.355 53.1334C202.355 60.01 196.487 64.8694 188.19 64.8694C179.525 64.8694 173.657 59.2765 173.749 51.1621C173.703 51.1162 179.479 51.1162 179.479 51.1162Z" fill="white"/>
</svg>
