<svg width="22" height="22" viewBox="0 0 22 22" fill="none" xmlns="http://www.w3.org/2000/svg">
<path d="M18.7451 18.7468H15.4855V13.6401C15.4855 12.4225 15.4636 10.8546 13.7899 10.8546C12.0922 10.8546 11.8322 12.1811 11.8322 13.5506V18.7463H8.57262V8.24767H11.7018V9.68261H11.744C12.0572 9.1471 12.5098 8.70657 13.0536 8.40795C13.5973 8.10933 14.2119 7.9638 14.8318 7.98685C18.1357 7.98685 18.7451 10.1604 18.7451 12.9876V18.7468ZM4.89442 6.81232C4.52023 6.8124 4.15442 6.70151 3.84325 6.49366C3.53208 6.28581 3.28953 5.99035 3.14628 5.64464C3.00302 5.29893 2.9655 4.9185 3.03845 4.55146C3.1114 4.18441 3.29155 3.84725 3.55611 3.58261C3.82067 3.31796 4.15777 3.13773 4.52476 3.06469C4.89176 2.99165 5.27217 3.02909 5.61788 3.17228C5.9636 3.31547 6.25909 3.55797 6.46699 3.86912C6.67489 4.18027 6.78585 4.54609 6.78585 4.92031C6.78585 5.42203 6.58659 5.9032 6.23189 6.25801C5.87719 6.61282 5.3961 6.8122 4.89442 6.81232V6.81232ZM6.52421 18.7463H3.26126V8.24767H6.52463L6.52421 18.7463ZM20.3685 0.00143006H1.62303C1.41216 -0.00113344 1.20285 0.0379259 1.00709 0.116372C0.811326 0.194818 0.632959 0.31111 0.482199 0.458589C0.331439 0.606068 0.211247 0.781838 0.128505 0.975836C0.0457618 1.16983 0.00209333 1.37825 0 1.58915V20.4121C0.00500881 20.8379 0.178803 21.2443 0.483205 21.542C0.787606 21.8397 1.19772 22.0044 1.62346 21.9999H20.3685C20.7954 22.0056 21.207 21.8416 21.513 21.5438C21.8189 21.2461 21.9941 20.839 22 20.4121V1.58577C21.9939 1.15914 21.8186 0.752419 21.5126 0.455063C21.2067 0.157707 20.7951 -0.0059239 20.3685 0.00016399" fill="white"/>
</svg>
