<svg width="198" height="157" viewBox="0 0 198 157" fill="none" xmlns="http://www.w3.org/2000/svg">
<path d="M44.2293 63.7087V57.1595C44.2293 54.7821 42.7938 52.6738 40.5958 51.7318L0 35V38.6334L36.1998 53.5709C37.4558 54.0643 37.4558 55.8586 36.1998 56.3521L0 71.2895V85.8682L21.8006 76.8518L36.155 82.773C37.411 83.2664 37.411 85.0607 36.155 85.5541L0 100.492V123.593L40.5958 106.861C42.7938 105.964 44.2293 103.811 44.2293 101.434V86.4064C44.2293 84.029 42.7938 81.9207 40.5958 80.9787L26.1967 75.0575L40.5958 69.1364C42.7938 68.2392 44.2293 66.0861 44.2293 63.7087Z" fill="white"/>
<path d="M64.8636 67.7012L71.2334 92.5072L78.3657 67.7012H85.184L91.9126 92.5072L98.5515 67.7012H103.575L95.0077 97.621H88.638L81.5954 71.828L74.2837 97.621H67.8242L59.5256 67.7012H64.8636Z" fill="white"/>
<path d="M111.246 84.1187C111.426 86.5859 111.695 87.8419 112.502 89.4119C113.982 92.2379 117.347 94.077 120.711 94.077C124.793 94.077 127.44 92.1482 128.561 88.3353H134.123C132.733 94.7948 127.843 98.3834 120.621 98.3834C111.605 98.3834 105.863 92.1931 105.863 82.5039C105.863 73.039 111.605 66.7141 120.173 66.7141C129.279 66.7141 134.213 72.9044 134.213 84.029H111.246V84.1187ZM127.305 74.9678C125.914 72.5904 123.088 71.155 120.173 71.155C115.149 71.155 111.964 74.3399 111.336 80.0816H128.74C128.471 77.435 128.112 76.179 127.305 74.9678Z" fill="white"/>
<path d="M139.237 56.3071H144.351V72.1866C146.459 68.6429 149.375 66.9832 153.636 66.9832C161.038 66.9832 166.331 73.4426 166.331 82.6832C166.331 91.9238 161.307 98.2038 153.681 98.2038C149.509 98.2038 146.773 96.5441 144.126 92.6415V97.5758H139.192V56.3071H139.237ZM144.44 82.5486C144.44 89.0978 148.164 93.9424 153.008 93.9424C157.673 93.9424 160.768 89.5464 160.768 82.7281C160.768 75.5958 157.673 71.1549 152.829 71.1549C147.984 71.1549 144.44 75.8201 144.44 82.5486Z" fill="white"/>
<path d="M175.616 85.016C175.527 90.3092 178.891 93.7632 184.184 93.7632C188.939 93.7632 192.393 90.7577 192.393 86.6309C192.393 82.4143 189.118 79.8126 183.825 79.8126C183.287 79.8126 182.838 79.8125 182.076 79.9023V75.3268C182.704 75.3268 183.063 75.3268 183.421 75.3268C188.894 75.3268 192.079 72.9494 192.079 68.6879C192.079 64.6956 188.984 62.1388 184.319 62.1388C179.295 62.1388 176.379 65.1442 176.199 70.4374H170.727C171.086 62.2285 176.11 57.4736 184.408 57.4736C192.079 57.4736 197.462 61.8696 197.462 68.2394C197.462 72.456 194.456 76.3585 190.419 77.4351C195.353 78.6911 198 82.0106 198 86.9897C198 93.7183 192.258 98.4732 184.139 98.4732C175.661 98.4732 169.919 93.0006 170.009 85.0609C169.964 85.016 175.616 85.016 175.616 85.016Z" fill="white"/>
</svg>
